<svg version="1.1" xmlns="http://www.w3.org/2000/svg" viewBox="0 0 822 527" width="822" height="527">
  <!-- svg-source:excalidraw -->
  
  <defs>
    <style class="style-fonts">
      @font-face {
        font-family: "Virgil";
        src: url("https://pomdtr.vscode-unpkg.net/pomdtr/excalidraw-editor/3.7.1/extension/public//dist/excalidraw-assets/Virgil.woff2");
      }
      @font-face {
        font-family: "Cascadia";
        src: url("https://pomdtr.vscode-unpkg.net/pomdtr/excalidraw-editor/3.7.1/extension/public//dist/excalidraw-assets/Cascadia.woff2");
      }
      @font-face {
        font-family: "Assistant";
        src: url("https://pomdtr.vscode-unpkg.net/pomdtr/excalidraw-editor/3.7.1/extension/public//dist/excalidraw-assets/Assistant-Regular.woff2");
      }
    </style>
    
  </defs>
  <rect x="0" y="0" width="822" height="527" fill="#ffffff"></rect><g transform="translate(120 364) rotate(0 254.5 6.5)" stroke="none"><path fill="#1e1e1e" d="M 0,-3.84 Q 0,-3.84 4.88,-3.68 9.77,-3.52 15.30,-3.40 20.82,-3.27 26.91,-3.19 33.00,-3.10 41.34,-3.03 49.68,-2.97 55.45,-2.04 61.22,-1.11 65.77,-0.73 70.32,-0.34 73.70,-0.33 77.08,-0.32 80.80,-0.63 84.51,-0.95 88.65,-1.16 92.78,-1.37 96.00,-1.37 99.23,-1.37 104.34,-1.14 109.44,-0.90 115.06,-0.73 120.69,-0.56 128.82,-0.43 136.96,-0.31 144.16,-0.21 151.36,-0.12 157.29,-0.05 163.22,0.01 167.76,0.06 172.29,0.10 175.08,-0.09 177.87,-0.30 180.49,-0.48 183.12,-0.66 185.67,-0.82 188.22,-0.97 190.74,-1.10 193.27,-1.23 195.78,-1.33 198.29,-1.44 202.53,-0.67 206.76,0.08 210.28,0.37 213.81,0.65 217.60,0.84 221.38,1.02 228.10,2.11 234.82,3.19 241.76,3.68 248.69,4.17 255.39,4.42 262.09,4.66 267.82,4.80 273.54,4.93 277.99,5.00 282.43,5.08 285.76,4.94 289.08,4.81 291.36,4.60 293.64,4.39 297.48,4.43 301.32,4.46 304.96,4.44 308.61,4.43 312.46,4.46 316.30,4.49 319.38,4.37 322.45,4.26 326.63,4.39 330.81,4.52 335.47,4.63 340.12,4.75 344.11,4.77 348.10,4.79 353.69,5.45 359.28,6.11 365.80,6.41 372.31,6.70 379.98,6.85 387.65,6.99 395.22,7.07 402.80,7.14 410.33,7.18 417.86,7.22 426.81,7.25 435.76,7.27 443.30,7.29 450.85,7.30 457.50,7.31 464.16,7.32 469.86,7.33 475.56,7.34 480.29,7.34 485.01,7.34 489.89,7.35 494.78,7.35 498.29,7.20 501.80,7.06 504.21,6.96 506.62,6.87 508.79,8.38 510.96,9.88 511.31,10.35 511.65,10.82 511.83,11.38 512.00,11.93 511.99,12.52 511.98,13.10 511.79,13.65 511.59,14.19 511.23,14.65 510.87,15.11 510.38,15.43 509.90,15.75 509.33,15.89 508.77,16.04 508.19,16.00 507.61,15.95 507.07,15.73 506.53,15.50 506.10,15.12 505.66,14.73 505.37,14.23 505.08,13.73 504.96,13.15 504.85,12.58 504.92,12.01 504.99,11.43 505.25,10.90 505.50,10.38 505.91,9.97 506.32,9.55 506.84,9.29 507.35,9.02 507.93,8.94 508.51,8.86 509.08,8.96 509.65,9.06 510.16,9.35 510.67,9.63 511.06,10.06 511.46,10.49 511.69,11.02 511.93,11.55 511.98,12.13 512.03,12.71 511.90,13.28 511.76,13.84 511.45,14.34 511.14,14.83 510.69,15.20 510.24,15.57 509.70,15.78 509.15,15.98 508.57,16.00 507.99,16.02 507.43,15.86 506.87,15.69 506.40,15.36 505.92,15.02 505.92,15.02 505.92,15.02 503.86,13.98 501.80,12.93 498.29,12.79 494.78,12.64 489.89,12.64 485.01,12.64 480.29,12.65 475.56,12.65 469.86,12.66 464.16,12.66 457.50,12.67 450.84,12.68 443.30,12.69 435.76,12.69 426.80,12.70 417.85,12.71 410.31,12.71 402.77,12.72 395.17,12.70 387.57,12.69 379.83,12.63 372.10,12.56 365.37,12.37 358.64,12.18 353.37,11.69 348.10,11.20 344.11,11.22 340.12,11.24 335.47,11.36 330.81,11.47 326.63,11.60 322.45,11.73 319.38,11.62 316.30,11.50 312.45,11.53 308.60,11.56 304.96,11.54 301.31,11.52 297.47,11.55 293.62,11.58 291.34,11.36 289.06,11.14 285.73,10.98 282.39,10.82 277.93,10.84 273.47,10.86 267.71,10.85 261.94,10.84 255.14,10.76 248.34,10.68 241.10,10.40 233.86,10.12 227.52,9.39 221.17,8.66 217.23,8.64 213.28,8.61 209.43,8.41 205.58,8.21 201.93,7.82 198.28,7.44 195.77,7.33 193.27,7.23 190.74,7.10 188.22,6.97 185.67,6.82 183.12,6.66 180.49,6.48 177.87,6.30 175.08,6.09 172.29,5.88 167.76,5.93 163.22,5.98 157.29,6.05 151.36,6.12 144.16,6.21 136.96,6.31 128.82,6.43 120.69,6.56 115.06,6.73 109.44,6.90 104.33,7.13 99.22,7.36 95.99,7.36 92.77,7.35 88.57,7.11 84.38,6.87 80.59,6.36 76.80,5.85 73.34,5.55 69.88,5.25 65.11,4.91 60.34,4.56 55.00,3.77 49.67,2.97 41.33,3.03 33.00,3.10 26.91,3.19 20.82,3.27 15.30,3.40 9.77,3.52 4.88,3.68 0,3.84 -0.46,3.79 -0.92,3.73 -1.35,3.57 -1.78,3.40 -2.17,3.14 -2.55,2.88 -2.86,2.53 -3.16,2.18 -3.38,1.77 -3.59,1.36 -3.71,0.91 -3.82,0.46 -3.82,-0.00 -3.82,-0.46 -3.71,-0.91 -3.59,-1.36 -3.38,-1.77 -3.16,-2.18 -2.86,-2.53 -2.55,-2.88 -2.17,-3.14 -1.78,-3.40 -1.35,-3.57 -0.92,-3.73 -0.46,-3.79 0.00,-3.84 0.00,-3.84 L 0,-3.84 Z"></path></g><g transform="translate(119 365) rotate(0 260 76)" stroke="none"><path fill="#1e1e1e" d="M 5.06,0 Q 5.06,0 4.95,3.44 4.83,6.89 4.84,9.80 4.84,12.70 5.01,16.72 5.17,20.73 5.09,23.97 5.01,27.21 5.17,30.85 5.34,34.49 5.47,37.11 5.60,39.73 7.04,41.76 8.48,43.78 9.28,46.03 10.08,48.28 11.66,51.80 13.23,55.31 13.65,59.48 14.07,63.65 15.43,65.84 16.78,68.03 17.54,70.41 18.29,72.79 18.71,76.04 19.14,79.29 20.04,81.51 20.93,83.72 22.60,88.25 24.28,92.79 24.74,95.92 25.20,99.05 27.66,100.04 30.12,101.03 32.01,102.56 33.91,104.08 35.97,106.98 38.03,109.88 40.76,111.02 43.49,112.16 46.07,114.37 48.64,116.59 52.85,119.46 57.05,122.33 59.19,123.53 61.34,124.72 63.09,126.31 64.83,127.89 68.03,127.89 71.23,127.89 73.64,127.85 76.05,127.81 79.47,127.79 82.89,127.76 86.66,127.76 90.44,127.75 93.18,127.84 95.93,127.93 98.54,127.99 101.14,128.05 104.55,128.24 107.96,128.43 111.70,128.34 115.45,128.25 117.62,128.23 119.79,128.22 122.15,128.22 124.51,128.23 126.95,128.25 129.39,128.26 133.97,129.40 138.56,130.54 142.14,130.67 145.73,130.80 151.98,131.76 158.23,132.72 161.07,133.02 163.92,133.33 169.77,135.24 175.62,137.15 177.85,137.61 180.08,138.07 183.11,139.35 186.13,140.63 188.63,141.00 191.14,141.36 193.71,141.54 196.28,141.71 198.81,141.76 201.35,141.82 203.98,142.47 206.62,143.12 210.26,143.34 213.91,143.55 217.94,143.89 221.98,144.24 226.58,144.52 231.18,144.81 234.58,144.83 237.98,144.84 240.86,144.77 243.74,144.70 246.40,144.62 249.06,144.53 252.20,144.53 255.35,144.52 259.56,144.76 263.77,144.99 267.86,145.13 271.95,145.27 276.57,145.42 281.18,145.57 286.30,146.56 291.41,147.56 296.17,147.98 300.93,148.41 306.41,148.62 311.88,148.83 317.09,148.94 322.30,149.05 325.95,148.98 329.61,148.91 333.46,148.89 337.30,148.86 340.38,148.71 343.45,148.56 347.63,148.65 351.81,148.75 355.60,148.72 359.39,148.70 362.44,148.56 365.49,148.42 369.66,148.53 373.83,148.64 378.48,148.74 383.12,148.83 386.54,148.73 389.95,148.63 393.70,148.61 397.45,148.60 401.06,148.55 404.66,148.51 407.06,148.33 409.45,148.15 412.58,147.35 415.71,146.55 418.39,146.14 421.06,145.73 423.63,145.54 426.20,145.35 428.73,145.24 431.26,145.14 435.21,145.33 439.17,145.52 443.15,145.68 447.12,145.84 450.61,144.54 454.11,143.23 458.16,140.45 462.21,137.67 464.04,135.52 465.87,133.36 468.98,131.30 472.10,129.25 474.49,126.22 476.87,123.20 479.47,120.18 482.08,117.16 484.98,113.42 487.88,109.68 490.32,107.31 492.76,104.95 493.41,102.70 494.07,100.46 494.16,96.82 494.25,93.17 495.39,89.31 496.53,85.44 496.97,82.46 497.41,79.47 497.57,76.72 497.73,73.96 498.43,70.86 499.13,67.75 499.31,64.65 499.49,61.56 500.58,58.68 501.67,55.79 502.60,53.55 503.53,51.32 506.25,47.02 508.96,42.72 510.30,39.78 511.63,36.84 512.55,34.27 513.47,31.71 513.74,29.05 514.01,26.39 513.98,24.00 513.95,21.61 513.93,19.71 513.91,17.80 514.07,16.83 514.24,15.86 514.71,15.00 515.18,14.13 515.90,13.46 516.62,12.79 517.52,12.39 518.41,11.98 519.39,11.88 520.37,11.79 521.33,12.01 522.29,12.23 523.13,12.74 523.96,13.26 524.59,14.01 525.22,14.77 525.58,15.68 525.94,16.60 525.98,17.58 526.03,18.57 525.75,19.51 525.48,20.46 524.92,21.27 524.36,22.07 523.58,22.66 522.79,23.25 521.85,23.56 520.92,23.86 519.93,23.85 518.95,23.85 518.02,23.52 517.09,23.20 516.31,22.60 515.54,22.00 514.99,21.18 514.45,20.36 514.19,19.41 513.94,18.46 514.00,17.48 514.06,16.50 514.43,15.58 514.81,14.67 515.45,13.93 516.09,13.19 516.94,12.69 517.79,12.19 518.75,11.98 519.71,11.78 520.69,11.90 521.67,12.01 522.56,12.43 523.44,12.85 524.15,13.54 524.86,14.22 525.31,15.09 525.77,15.96 525.92,16.94 526.07,17.91 526.07,17.91 526.07,17.91 525.93,21.15 525.79,24.40 525.41,27.63 525.02,30.85 524.51,33.13 523.99,35.41 523.20,37.67 522.41,39.93 521.31,43.09 520.21,46.25 518.24,48.77 516.26,51.29 514.94,53.39 513.61,55.49 512.62,57.86 511.62,60.24 510.68,62.94 509.75,65.65 509.35,67.88 508.95,70.12 508.37,72.34 507.78,74.56 507.62,77.57 507.46,80.59 507.14,84.41 506.82,88.23 506.17,90.92 505.52,93.61 505.43,96.04 505.34,98.47 504.35,102.85 503.36,107.23 501.92,109.68 500.48,112.14 498.35,114.57 496.22,117.01 494.54,119.03 492.85,121.06 489.93,123.91 487.02,126.75 484.67,129.93 482.33,133.11 480.18,135.72 478.03,138.33 474.32,140.18 470.60,142.03 468.88,143.95 467.16,145.87 465.14,146.88 463.11,147.90 460.95,149.46 458.79,151.01 455.38,152.68 451.98,154.34 449.56,154.25 447.14,154.17 443.18,154.35 439.21,154.53 435.32,154.76 431.43,154.98 429.02,154.96 426.61,154.95 422.32,155.04 418.03,155.14 413.74,155.49 409.45,155.84 407.06,155.66 404.66,155.48 401.06,155.44 397.45,155.39 393.70,155.38 389.95,155.36 386.54,155.26 383.12,155.15 378.48,155.25 373.83,155.35 369.66,155.46 365.49,155.57 362.44,155.43 359.39,155.29 355.60,155.26 351.81,155.24 347.63,155.32 343.44,155.41 340.36,155.25 337.29,155.09 333.42,155.05 329.56,155.00 325.89,154.87 322.23,154.75 316.97,154.72 311.72,154.70 306.10,154.60 300.48,154.50 295.38,154.19 290.28,153.88 285.73,153.15 281.17,152.42 276.56,152.57 271.95,152.72 267.86,152.86 263.77,153.00 259.56,153.23 255.35,153.46 252.20,153.46 249.06,153.45 246.39,153.37 243.73,153.28 240.84,153.20 237.96,153.12 234.55,153.12 231.15,153.12 226.51,153.37 221.87,153.62 217.69,153.86 213.51,154.11 210.22,154.01 206.94,153.90 203.93,152.90 200.92,151.91 198.23,151.80 195.54,151.68 192.58,151.44 189.63,151.21 185.89,150.61 182.15,150.02 179.96,149.04 177.77,148.06 174.49,147.26 171.22,146.46 167.14,145.19 163.05,143.93 159.80,143.73 156.55,143.54 153.13,143.29 149.72,143.03 145.67,142.91 141.62,142.79 139.05,142.51 136.49,142.22 132.94,140.98 129.39,139.73 126.95,139.74 124.51,139.76 122.15,139.77 119.79,139.77 117.62,139.76 115.45,139.74 111.70,139.65 107.96,139.56 104.55,139.75 101.14,139.94 98.54,140.00 95.93,140.05 93.18,140.15 90.43,140.24 86.65,140.23 82.86,140.22 79.38,140.17 75.89,140.13 73.16,139.97 70.44,139.82 67.00,139.30 63.57,138.77 59.72,136.64 55.88,134.51 51.60,131.45 47.31,128.38 44.19,127.26 41.07,126.13 38.26,124.16 35.46,122.19 32.39,120.58 29.31,118.97 28.05,116.69 26.80,114.41 24.79,112.79 22.79,111.16 19.80,109.26 16.82,107.36 15.18,104.22 13.55,101.09 13.17,98.90 12.79,96.71 11.81,94.24 10.82,91.78 9.60,88.45 8.38,85.13 7.49,82.81 6.59,80.50 6.25,77.20 5.90,73.91 4.61,71.62 3.33,69.33 2.52,66.86 1.71,64.38 1.65,61.35 1.58,58.32 0.15,54.13 -1.26,49.95 -2.38,48.08 -3.49,46.21 -4.55,43.15 -5.60,40.08 -5.47,37.29 -5.34,34.49 -5.17,30.85 -5.01,27.21 -5.09,23.97 -5.17,20.73 -5.01,16.72 -4.84,12.70 -4.84,9.80 -4.83,6.89 -4.95,3.44 -5.06,0 -4.99,-0.60 -4.91,-1.21 -4.70,-1.78 -4.48,-2.35 -4.13,-2.85 -3.79,-3.35 -3.33,-3.76 -2.87,-4.16 -2.33,-4.45 -1.79,-4.73 -1.20,-4.88 -0.61,-5.02 0.00,-5.02 0.61,-5.02 1.20,-4.88 1.79,-4.73 2.33,-4.45 2.87,-4.16 3.33,-3.76 3.79,-3.35 4.13,-2.85 4.48,-2.35 4.70,-1.78 4.91,-1.21 4.99,-0.60 5.06,0.00 5.06,0.00 L 5.06,0 Z"></path></g><g transform="translate(339 364) rotate(0 6.5 -49.5)" stroke="none"><path fill="#1e1e1e" d="M -3.96,-0.99 Q -3.96,-0.99 -3.07,-4.43 -2.18,-7.87 -1.85,-11.07 -1.52,-14.27 -1.30,-17.93 -1.09,-21.60 -0.52,-24.26 0.03,-26.93 0.32,-30.29 0.61,-33.66 0.82,-37.49 1.03,-41.32 1.10,-44.96 1.16,-48.61 1.09,-51.60 1.01,-54.59 1.04,-58.15 1.06,-61.72 0.98,-64.70 0.91,-67.69 1.78,-71.00 2.66,-74.32 3.55,-77.00 4.44,-79.68 4.68,-81.89 4.92,-84.10 6.13,-86.55 7.34,-89.01 7.46,-91.96 7.58,-94.92 7.62,-96.70 7.67,-98.48 7.86,-99.31 8.05,-100.14 8.49,-100.87 8.94,-101.60 9.59,-102.15 10.24,-102.70 11.04,-103.02 11.84,-103.33 12.69,-103.37 13.55,-103.41 14.37,-103.18 15.19,-102.95 15.90,-102.46 16.60,-101.98 17.12,-101.29 17.63,-100.61 17.90,-99.80 18.17,-98.99 18.16,-98.13 18.16,-97.28 17.88,-96.47 17.60,-95.66 17.08,-94.98 16.56,-94.30 15.85,-93.83 15.14,-93.35 14.31,-93.13 13.49,-92.90 12.63,-92.95 11.78,-93.00 10.99,-93.33 10.19,-93.65 9.55,-94.20 8.90,-94.76 8.46,-95.50 8.02,-96.23 7.84,-97.07 7.67,-97.90 7.76,-98.75 7.86,-99.60 8.22,-100.38 8.59,-101.15 9.18,-101.77 9.77,-102.39 10.53,-102.78 11.29,-103.18 12.13,-103.31 12.98,-103.45 13.82,-103.30 14.66,-103.16 15.41,-102.76 16.17,-102.35 16.75,-101.73 17.34,-101.10 17.69,-100.32 18.05,-99.55 18.13,-98.69 18.22,-97.84 18.22,-97.84 18.22,-97.85 17.73,-93.84 17.23,-89.83 15.56,-86.11 13.89,-82.39 13.32,-79.54 12.76,-76.68 11.77,-74.19 10.78,-71.71 9.93,-69.63 9.07,-67.56 8.99,-64.63 8.90,-61.70 8.91,-58.12 8.92,-54.53 8.80,-51.52 8.68,-48.51 8.65,-44.80 8.62,-41.09 8.60,-37.09 8.57,-33.09 7.60,-27.16 6.63,-21.22 6.53,-17.33 6.44,-13.43 6.03,-9.68 5.63,-5.92 4.79,-2.46 3.96,0.99 3.78,1.44 3.60,1.90 3.32,2.31 3.04,2.71 2.67,3.04 2.30,3.36 1.87,3.59 1.43,3.82 0.95,3.93 0.47,4.05 -0.01,4.05 -0.50,4.05 -0.98,3.93 -1.46,3.81 -1.89,3.58 -2.33,3.35 -2.69,3.02 -3.06,2.69 -3.34,2.29 -3.62,1.88 -3.79,1.42 -3.96,0.96 -4.02,0.47 -4.08,-0.01 -4.02,-0.50 -3.96,-0.99 -3.96,-0.99 L -3.96,-0.99 Z"></path></g><g transform="translate(362 364) rotate(0 0 -56)" stroke="none"><path fill="#1e1e1e" d="M -4.14,0 Q -4.14,0 -3.94,-4.88 -3.74,-9.77 -3.63,-13.86 -3.52,-17.95 -3.40,-22.56 -3.28,-27.18 -3.19,-31.44 -3.10,-35.70 -3.23,-38.95 -3.37,-42.19 -3.45,-45.59 -3.53,-48.98 -3.67,-51.86 -3.80,-54.74 -3.93,-57.40 -4.06,-60.06 -4.18,-62.63 -4.29,-65.20 -4.39,-67.73 -4.49,-70.26 -4.57,-72.77 -4.66,-75.28 -4.73,-77.79 -4.80,-80.29 -4.85,-82.79 -4.91,-85.30 -5.09,-88.62 -5.28,-91.94 -5.40,-95.69 -5.53,-99.44 -5.66,-102.17 -5.79,-104.90 -5.89,-108.02 -5.99,-111.14 -5.83,-112.10 -5.67,-113.05 -5.22,-113.91 -4.77,-114.77 -4.06,-115.43 -3.36,-116.10 -2.48,-116.51 -1.60,-116.91 -0.63,-117.02 0.32,-117.12 1.27,-116.91 2.21,-116.71 3.04,-116.21 3.87,-115.71 4.50,-114.97 5.13,-114.23 5.49,-113.33 5.85,-112.43 5.90,-111.46 5.95,-110.49 5.69,-109.56 5.43,-108.62 4.89,-107.82 4.35,-107.02 3.57,-106.43 2.80,-105.84 1.88,-105.53 0.96,-105.22 -0.00,-105.22 -0.97,-105.23 -1.88,-105.53 -2.80,-105.84 -3.57,-106.43 -4.35,-107.02 -4.89,-107.82 -5.43,-108.62 -5.69,-109.56 -5.95,-110.49 -5.90,-111.46 -5.85,-112.43 -5.49,-113.33 -5.13,-114.23 -4.50,-114.97 -3.87,-115.71 -3.04,-116.21 -2.21,-116.71 -1.26,-116.91 -0.32,-117.12 0.64,-117.02 1.60,-116.91 2.48,-116.51 3.36,-116.10 4.06,-115.43 4.77,-114.76 5.22,-113.91 5.67,-113.05 5.83,-112.09 5.99,-111.14 5.99,-111.14 5.99,-111.14 5.89,-108.02 5.79,-104.90 5.66,-102.17 5.53,-99.44 5.40,-95.69 5.28,-91.94 5.09,-88.62 4.91,-85.30 4.85,-82.79 4.80,-80.29 4.73,-77.79 4.66,-75.28 4.57,-72.77 4.49,-70.26 4.39,-67.73 4.29,-65.20 4.18,-62.63 4.06,-60.06 3.93,-57.40 3.80,-54.74 3.67,-51.86 3.53,-48.98 3.45,-45.59 3.37,-42.19 3.23,-38.95 3.10,-35.70 3.19,-31.44 3.28,-27.18 3.40,-22.56 3.52,-17.95 3.63,-13.86 3.74,-9.77 3.94,-4.88 4.14,0 4.08,0.49 4.02,0.99 3.85,1.46 3.67,1.92 3.38,2.33 3.10,2.75 2.73,3.08 2.35,3.41 1.91,3.64 1.47,3.87 0.98,3.99 0.49,4.11 -0.00,4.11 -0.50,4.11 -0.98,3.99 -1.47,3.87 -1.91,3.64 -2.35,3.41 -2.73,3.08 -3.10,2.75 -3.38,2.33 -3.67,1.92 -3.85,1.45 -4.02,0.99 -4.08,0.49 -4.14,-0.00 -4.14,-0.00 L -4.14,0 Z"></path></g><g transform="translate(327 267) rotate(0 30 -22.5)" stroke="none"><path fill="#1e1e1e" d="M 0,-4.76 Q 0,-4.76 4.31,-4.49 8.62,-4.21 11.89,-4.22 15.16,-4.23 18.56,-4.21 21.97,-4.20 24.85,-4.26 27.73,-4.33 30.40,-4.41 33.06,-4.50 35.63,-4.57 38.20,-4.65 40.73,-4.72 43.26,-4.78 46.59,-4.98 49.93,-5.18 52.13,-6.40 54.33,-7.62 54.12,-10.96 53.91,-14.30 53.94,-16.51 53.97,-18.72 54.00,-21.10 54.04,-23.47 54.07,-25.92 54.11,-28.37 54.04,-31.66 53.96,-34.95 53.76,-37.86 53.56,-40.77 53.08,-41.63 52.60,-42.50 52.43,-43.47 52.25,-44.44 52.40,-45.42 52.54,-46.39 52.99,-47.27 53.44,-48.15 54.15,-48.84 54.85,-49.53 55.74,-49.96 56.63,-50.39 57.61,-50.51 58.59,-50.63 59.56,-50.44 60.53,-50.24 61.38,-49.74 62.24,-49.25 62.89,-48.50 63.54,-47.76 63.92,-46.85 64.30,-45.94 64.36,-44.95 64.43,-43.97 64.18,-43.01 63.93,-42.06 63.39,-41.23 62.85,-40.41 62.07,-39.80 61.30,-39.19 60.37,-38.86 59.44,-38.53 58.45,-38.51 57.46,-38.50 56.52,-38.80 55.58,-39.10 54.79,-39.69 53.99,-40.27 53.42,-41.08 52.86,-41.89 52.58,-42.84 52.30,-43.78 52.34,-44.77 52.38,-45.76 52.73,-46.68 53.08,-47.60 53.71,-48.36 54.33,-49.13 55.17,-49.65 56.01,-50.17 56.97,-50.40 57.93,-50.62 58.92,-50.53 59.90,-50.44 60.80,-50.04 61.70,-49.64 62.43,-48.97 63.16,-48.30 63.16,-48.30 63.16,-48.30 64.59,-41.62 66.02,-34.94 65.95,-31.65 65.87,-28.36 65.90,-25.90 65.93,-23.43 65.95,-21.02 65.96,-18.61 65.96,-16.32 65.95,-14.02 65.68,-10.50 65.41,-6.97 64.80,-4.85 64.20,-2.73 62.91,-0.91 61.61,0.89 59.63,2.35 57.65,3.80 53.79,4.49 49.93,5.18 46.59,4.98 43.26,4.78 40.73,4.72 38.20,4.65 35.63,4.57 33.06,4.50 30.40,4.41 27.73,4.33 24.85,4.26 21.97,4.20 18.56,4.21 15.16,4.23 11.89,4.22 8.62,4.21 4.31,4.49 0,4.76 -0.57,4.70 -1.14,4.63 -1.67,4.42 -2.21,4.22 -2.68,3.89 -3.16,3.57 -3.54,3.13 -3.92,2.70 -4.19,2.20 -4.46,1.69 -4.59,1.13 -4.73,0.57 -4.73,-0.00 -4.73,-0.57 -4.59,-1.13 -4.45,-1.69 -4.19,-2.20 -3.92,-2.70 -3.54,-3.14 -3.16,-3.57 -2.68,-3.89 -2.21,-4.22 -1.67,-4.42 -1.14,-4.63 -0.57,-4.70 0.00,-4.76 0.00,-4.76 L 0,-4.76 Z"></path></g><g transform="translate(335 257) rotate(0 0 -17.5)" stroke="none"><path fill="#1e1e1e" d="M -5.16,0 Q -5.16,0 -5.04,-3.44 -4.91,-6.89 -4.91,-9.80 -4.91,-12.70 -5.08,-16.27 -5.26,-19.83 -5.41,-22.52 -5.57,-25.21 -5.67,-29.57 -5.77,-33.93 -5.62,-34.85 -5.46,-35.78 -5.03,-36.60 -4.59,-37.43 -3.91,-38.07 -3.23,-38.71 -2.39,-39.10 -1.54,-39.49 -0.61,-39.59 0.31,-39.70 1.22,-39.50 2.13,-39.29 2.93,-38.81 3.73,-38.33 4.34,-37.62 4.94,-36.91 5.29,-36.04 5.63,-35.17 5.68,-34.24 5.73,-33.31 5.48,-32.41 5.23,-31.51 4.71,-30.74 4.18,-29.96 3.44,-29.40 2.70,-28.83 1.81,-28.53 0.93,-28.24 -0.00,-28.24 -0.93,-28.24 -1.81,-28.53 -2.70,-28.83 -3.44,-29.40 -4.19,-29.96 -4.71,-30.74 -5.23,-31.51 -5.48,-32.41 -5.73,-33.31 -5.68,-34.24 -5.63,-35.17 -5.29,-36.04 -4.94,-36.91 -4.34,-37.62 -3.73,-38.33 -2.93,-38.81 -2.13,-39.29 -1.22,-39.50 -0.31,-39.70 0.61,-39.59 1.54,-39.49 2.39,-39.10 3.24,-38.71 3.91,-38.07 4.59,-37.42 5.03,-36.60 5.47,-35.77 5.62,-34.85 5.77,-33.93 5.77,-33.93 5.77,-33.93 5.67,-29.57 5.57,-25.21 5.41,-22.52 5.26,-19.83 5.08,-16.27 4.91,-12.70 4.91,-9.80 4.91,-6.89 5.04,-3.44 5.16,0 5.08,0.61 5.01,1.23 4.79,1.81 4.57,2.39 4.21,2.91 3.86,3.42 3.39,3.83 2.93,4.24 2.38,4.53 1.83,4.82 1.22,4.97 0.62,5.12 -0.00,5.12 -0.62,5.12 -1.22,4.97 -1.83,4.82 -2.38,4.53 -2.93,4.24 -3.39,3.83 -3.86,3.42 -4.21,2.91 -4.57,2.39 -4.79,1.81 -5.01,1.23 -5.08,0.61 -5.16,-0.00 -5.16,-0.00 L -5.16,0 Z"></path></g><g transform="translate(417 167) rotate(0 -27.5 22.5)" stroke="none"><path fill="#1e1e1e" d="M 0,3.52 Q 0,3.52 -3.44,3.58 -6.89,3.63 -12.67,3.49 -18.45,3.36 -23.21,3.26 -27.96,3.16 -32.86,3.09 -37.76,3.01 -42.71,2.96 -47.67,2.91 -52.65,2.87 -57.63,2.83 -61.76,2.83 -65.89,2.83 -69.08,3.00 -72.27,3.17 -75.68,3.78 -79.08,4.38 -83.68,4.56 -88.28,4.73 -92.20,4.85 -96.13,4.97 -98.80,5.95 -101.47,6.92 -105.78,7.81 -110.09,8.69 -112.66,9.23 -115.22,9.77 -116.08,12.51 -116.93,15.26 -116.93,18.86 -116.93,22.46 -116.91,24.60 -116.89,26.74 -116.15,30.01 -115.40,33.29 -113.15,33.76 -110.89,34.23 -108.69,35.06 -106.50,35.88 -103.58,35.82 -100.66,35.77 -96.90,35.79 -93.15,35.81 -90.75,35.86 -88.35,35.91 -84.97,37.00 -81.60,38.08 -79.14,38.38 -76.67,38.67 -74.23,38.80 -71.79,38.92 -68.41,39.15 -65.03,39.37 -62.14,39.44 -59.26,39.52 -56.59,39.54 -53.93,39.57 -50.79,39.66 -47.64,39.75 -44.01,39.92 -40.37,40.10 -35.95,40.39 -31.53,40.69 -28.24,40.70 -24.94,40.71 -21.57,39.66 -18.20,38.61 -15.81,38.39 -13.43,38.18 -11.00,38.08 -8.57,37.98 -6.11,37.92 -3.64,37.86 0.10,37.71 3.85,37.57 6.19,37.54 8.53,37.52 11.76,37.40 14.98,37.27 18.71,37.20 22.45,37.13 25.18,37.03 27.90,36.93 30.44,36.85 32.98,36.77 36.06,36.73 39.14,36.70 41.40,36.73 43.66,36.76 46.83,36.72 50.00,36.68 53.73,36.67 57.46,36.67 60.18,36.62 62.90,36.56 64.58,36.54 66.26,36.51 67.29,36.68 68.33,36.85 69.25,37.34 70.18,37.83 70.90,38.59 71.62,39.36 72.06,40.31 72.50,41.26 72.62,42.30 72.73,43.35 72.50,44.37 72.28,45.40 71.74,46.29 71.20,47.19 70.40,47.87 69.60,48.55 68.62,48.94 67.65,49.33 66.60,49.38 65.55,49.44 64.54,49.16 63.53,48.88 62.66,48.29 61.80,47.70 61.16,46.87 60.53,46.03 60.19,45.04 59.86,44.04 59.86,42.99 59.86,41.94 60.19,40.95 60.53,39.96 61.16,39.12 61.80,38.29 62.67,37.70 63.53,37.11 64.54,36.83 65.56,36.55 66.60,36.61 67.65,36.66 68.63,37.05 69.60,37.44 70.40,38.12 71.20,38.80 71.74,39.70 72.28,40.60 72.51,41.62 72.73,42.65 72.62,43.69 72.50,44.73 72.06,45.68 71.62,46.64 70.90,47.40 70.18,48.16 69.25,48.65 68.32,49.14 67.29,49.31 66.25,49.48 66.25,49.48 66.26,49.48 64.58,49.45 62.90,49.43 60.18,49.37 57.46,49.32 53.73,49.32 50.00,49.31 46.83,49.27 43.66,49.23 41.40,49.26 39.14,49.29 36.06,49.26 32.98,49.22 30.44,49.14 27.90,49.06 25.18,48.96 22.45,48.86 18.72,48.79 14.98,48.72 11.76,48.60 8.54,48.47 6.20,48.45 3.87,48.43 0.15,48.31 -3.56,48.19 -5.97,48.17 -8.38,48.14 -10.67,48.13 -12.95,48.11 -16.31,48.17 -19.67,48.22 -22.26,48.75 -24.85,49.28 -28.19,49.29 -31.53,49.30 -35.95,49.60 -40.37,49.89 -44.01,50.06 -47.65,50.23 -50.80,50.32 -53.95,50.41 -56.63,50.42 -59.30,50.44 -62.21,50.49 -65.12,50.54 -68.60,50.70 -72.09,50.87 -76.90,50.61 -81.72,50.35 -85.16,49.21 -88.60,48.06 -90.90,48.10 -93.21,48.14 -97.12,48.10 -101.02,48.05 -104.70,47.72 -108.38,47.39 -111.07,46.15 -113.76,44.91 -116.06,43.37 -118.35,41.82 -120.42,40.93 -122.48,40.03 -124.13,36.31 -125.78,32.58 -126.35,29.57 -126.92,26.55 -126.52,22.08 -126.12,17.61 -125.44,14.26 -124.76,10.91 -122.91,8.28 -121.07,5.66 -119.01,4.34 -116.95,3.02 -114.23,2.74 -111.52,2.46 -107.45,1.42 -103.38,0.39 -99.86,-0.44 -96.35,-1.28 -92.48,-1.37 -88.62,-1.45 -84.36,-1.77 -80.10,-2.08 -76.19,-2.63 -72.28,-3.17 -69.09,-3.00 -65.89,-2.83 -61.76,-2.83 -57.63,-2.83 -52.65,-2.87 -47.67,-2.91 -42.71,-2.96 -37.76,-3.01 -32.86,-3.09 -27.96,-3.16 -23.21,-3.26 -18.45,-3.36 -12.67,-3.49 -6.89,-3.63 -3.44,-3.58 0,-3.52 0.42,-3.47 0.84,-3.42 1.24,-3.27 1.63,-3.12 1.98,-2.87 2.33,-2.63 2.61,-2.32 2.90,-2.00 3.09,-1.62 3.29,-1.24 3.39,-0.83 3.49,-0.42 3.49,0.00 3.49,0.42 3.39,0.83 3.29,1.25 3.09,1.62 2.90,2.00 2.61,2.32 2.33,2.63 1.98,2.88 1.63,3.12 1.24,3.27 0.84,3.42 0.42,3.47 -0.00,3.52 -0.00,3.52 L 0,3.52 Z"></path></g><g transform="translate(414 167) rotate(0 51.5 -1)" stroke="none"><path fill="#1e1e1e" d="M 0,-4.96 Q 0,-4.96 2.3,-5.02 4.6,-5.08 7.01,-5.13 9.43,-5.17 11.89,-5.20 14.35,-5.23 18.27,-4.99 22.18,-4.74 24.87,-5.25 27.55,-5.76 31.38,-6.35 35.21,-6.94 38.61,-7.16 42.01,-7.38 45.17,-7.30 48.34,-7.22 53.99,-6.89 59.64,-6.56 64.92,-6.31 70.20,-6.05 75.31,-5.86 80.43,-5.67 86.06,-5.53 91.68,-5.39 96.32,-5.58 100.95,-5.76 101.55,-5.66 102.15,-5.56 102.69,-5.28 103.23,-4.99 103.65,-4.55 104.07,-4.11 104.33,-3.56 104.58,-3.00 104.65,-2.40 104.71,-1.79 104.58,-1.20 104.45,-0.60 104.14,-0.08 103.82,0.43 103.36,0.83 102.89,1.22 102.33,1.45 101.76,1.67 101.15,1.71 100.54,1.74 99.96,1.58 99.37,1.41 98.86,1.07 98.36,0.73 97.99,0.24 97.62,-0.23 97.43,-0.81 97.23,-1.39 97.23,-2.00 97.23,-2.60 97.43,-3.18 97.62,-3.76 97.99,-4.24 98.36,-4.73 98.87,-5.07 99.37,-5.41 99.96,-5.58 100.54,-5.74 101.15,-5.71 101.76,-5.67 102.33,-5.45 102.89,-5.22 103.36,-4.83 103.82,-4.43 104.14,-3.91 104.45,-3.39 104.58,-2.79 104.71,-2.20 104.65,-1.59 104.58,-0.99 104.32,-0.43 104.07,0.11 103.65,0.55 103.23,0.99 102.69,1.28 102.15,1.57 101.55,1.66 100.95,1.76 100.95,1.76 100.95,1.76 96.32,1.58 91.68,1.39 86.06,1.53 80.43,1.67 75.31,1.87 70.20,2.06 64.92,2.32 59.65,2.57 54.01,2.91 48.36,3.25 45.24,3.34 42.11,3.44 38.98,3.35 35.85,3.25 32.55,3.36 29.26,3.46 25.74,4.10 22.21,4.74 18.28,4.99 14.35,5.23 11.89,5.20 9.43,5.17 7.01,5.13 4.6,5.08 2.3,5.02 0,4.96 -0.59,4.89 -1.18,4.81 -1.74,4.60 -2.30,4.39 -2.79,4.05 -3.29,3.71 -3.68,3.26 -4.08,2.81 -4.36,2.29 -4.64,1.76 -4.78,1.17 -4.92,0.59 -4.92,-0.00 -4.92,-0.59 -4.78,-1.17 -4.64,-1.76 -4.36,-2.29 -4.08,-2.82 -3.68,-3.26 -3.29,-3.71 -2.79,-4.05 -2.30,-4.39 -1.74,-4.60 -1.18,-4.82 -0.59,-4.89 0.00,-4.96 0.00,-4.96 L 0,-4.96 Z"></path></g><g transform="translate(492 219) rotate(0 142.5 5.5)" stroke="none"><path fill="#1e1e1e" d="M 4.29,-2.68 Q 4.29,-2.68 5.74,-0.38 7.19,1.91 9.15,4.37 11.10,6.82 12.41,8.68 13.72,10.53 14.40,13.38 15.07,16.24 15.25,18.77 15.42,21.30 16.85,25.12 18.29,28.95 21.84,32.44 25.39,35.94 27.70,38.42 30.01,40.90 32.29,43.37 34.57,45.85 36.81,46.43 39.04,47.01 42.29,49.21 45.54,51.40 48.52,52.66 51.51,53.92 54.81,56.22 58.12,58.52 61.10,60.16 64.09,61.81 66.49,62.30 68.89,62.80 71.26,62.96 73.62,63.13 76.86,63.29 80.11,63.45 82.96,63.45 85.81,63.45 89.02,63.49 92.24,63.52 95.04,63.48 97.85,63.43 101.33,63.51 104.82,63.58 107.32,63.01 109.82,62.44 113.33,62.18 116.85,61.92 122.10,62.05 127.34,62.18 134.44,62.32 141.53,62.45 148.28,62.57 155.02,62.68 161.34,62.77 167.66,62.86 174.08,62.93 180.50,62.99 185.88,62.20 191.27,61.40 195.77,61.06 200.26,60.72 203.02,60.34 205.77,59.97 209.75,59.49 213.73,59.01 217.55,59.07 221.37,59.13 225.86,59.29 230.35,59.46 235.14,59.58 239.92,59.70 248.57,59.79 257.21,59.88 262.75,59.38 268.29,58.88 272.12,58.61 275.96,58.34 276.71,54.02 277.47,49.70 277.60,46.35 277.74,43.00 278.88,37.81 280.02,32.61 280.37,29.21 280.72,25.81 280.91,22.13 281.11,18.46 281.08,15.44 281.04,12.42 280.79,8.35 280.53,4.27 280.32,0.26 280.11,-3.74 280.05,-6.06 280.00,-8.38 279.04,-11.82 278.08,-15.25 277.32,-18.02 276.56,-20.80 276.02,-22.93 275.48,-25.05 274.74,-27.32 274.00,-29.60 272.91,-31.46 271.82,-33.32 271.03,-35.62 270.24,-37.93 267.78,-40.04 265.33,-42.15 258.07,-44.54 250.80,-46.92 245.94,-48.75 241.09,-50.58 237.29,-51.38 233.49,-52.17 228.21,-52.60 222.93,-53.03 218.63,-53.27 214.33,-53.52 211.06,-53.46 207.80,-53.40 204.98,-53.28 202.15,-53.16 198.66,-53.16 195.17,-53.15 190.80,-53.32 186.44,-53.48 181.72,-53.60 176.99,-53.73 172.28,-53.25 167.58,-52.77 161.94,-52.58 156.29,-52.39 150.17,-52.33 144.04,-52.28 138.57,-52.27 133.09,-52.25 127.31,-52.26 121.54,-52.27 116.78,-52.28 112.03,-52.29 107.99,-52.24 103.96,-52.20 100.81,-52.02 97.65,-51.84 94.88,-51.66 92.10,-51.47 89.48,-51.31 86.86,-51.15 82.88,-51.24 78.89,-51.34 74.89,-51.41 70.90,-51.49 67.19,-51.48 63.48,-51.47 59.60,-51.50 55.73,-51.53 51.20,-51.64 46.68,-51.76 43.32,-51.65 39.96,-51.55 37.10,-51.41 34.23,-51.26 31.00,-51.19 27.77,-51.12 24.96,-51.02 22.15,-50.91 18.66,-50.92 15.16,-50.94 11.00,-50.80 6.83,-50.65 6.14,-50.77 5.44,-50.88 4.82,-51.21 4.20,-51.54 3.72,-52.05 3.24,-52.56 2.94,-53.20 2.65,-53.83 2.57,-54.53 2.49,-55.23 2.65,-55.92 2.80,-56.60 3.16,-57.20 3.52,-57.81 4.06,-58.26 4.59,-58.72 5.25,-58.98 5.90,-59.24 6.60,-59.27 7.30,-59.31 7.98,-59.12 8.66,-58.94 9.24,-58.54 9.82,-58.15 10.24,-57.59 10.67,-57.03 10.89,-56.36 11.12,-55.70 11.12,-54.99 11.12,-54.29 10.89,-53.63 10.67,-52.96 10.24,-52.40 9.82,-51.84 9.24,-51.45 8.65,-51.05 7.98,-50.87 7.30,-50.68 6.60,-50.72 5.90,-50.75 5.24,-51.01 4.59,-51.27 4.06,-51.73 3.52,-52.18 3.16,-52.79 2.80,-53.39 2.65,-54.07 2.49,-54.76 2.57,-55.46 2.65,-56.16 2.94,-56.80 3.24,-57.43 3.72,-57.94 4.20,-58.45 4.82,-58.78 5.45,-59.11 6.14,-59.22 6.83,-59.34 6.83,-59.34 6.83,-59.34 11.00,-59.19 15.16,-59.05 18.66,-59.07 22.15,-59.08 24.96,-58.97 27.77,-58.87 31.00,-58.80 34.23,-58.73 37.10,-58.58 39.96,-58.44 43.32,-58.34 46.68,-58.23 51.20,-58.35 55.73,-58.46 59.60,-58.49 63.48,-58.52 67.19,-58.51 70.90,-58.50 74.89,-58.58 78.89,-58.65 82.88,-58.75 86.86,-58.84 89.48,-58.68 92.10,-58.52 94.88,-58.34 97.65,-58.16 100.80,-57.98 103.95,-57.80 107.98,-57.76 112.02,-57.73 116.77,-57.75 121.52,-57.78 127.28,-57.82 133.05,-57.87 138.49,-57.94 143.94,-58.02 149.99,-58.17 156.03,-58.32 161.44,-58.62 166.86,-58.92 171.92,-59.59 176.99,-60.26 181.72,-60.38 186.45,-60.49 190.82,-60.65 195.19,-60.81 198.70,-60.79 202.21,-60.76 205.06,-60.60 207.91,-60.43 211.21,-60.28 214.51,-60.12 218.91,-60.12 223.30,-60.13 229.01,-59.99 234.72,-59.86 239.18,-59.32 243.65,-58.79 248.76,-57.49 253.88,-56.19 258.56,-55.00 263.25,-53.81 267.04,-53.08 270.83,-52.36 273.51,-50.79 276.20,-49.21 278.43,-46.45 280.66,-43.70 281.10,-41.25 281.54,-38.80 282.72,-36.69 283.91,-34.58 284.75,-32.38 285.58,-30.18 285.94,-26.96 286.29,-23.74 287.51,-18.56 288.74,-13.39 289.36,-10.99 289.99,-8.58 289.93,-6.16 289.88,-3.73 289.65,0.29 289.42,4.32 289.08,8.46 288.74,12.60 288.57,15.69 288.39,18.77 288.26,22.70 288.12,26.63 287.69,30.29 287.27,33.96 286.57,38.63 285.88,43.31 285.76,46.93 285.65,50.56 285.13,53.82 284.62,57.07 283.16,59.56 281.69,62.06 279.16,63.21 276.64,64.37 272.76,64.59 268.89,64.81 263.05,65.46 257.22,66.11 248.57,66.20 239.93,66.29 235.14,66.42 230.36,66.55 225.88,66.72 221.39,66.89 217.61,66.98 213.83,67.06 209.99,66.77 206.15,66.48 203.44,66.42 200.73,66.35 196.44,66.75 192.15,67.14 186.33,68.07 180.51,69.01 174.09,69.08 167.66,69.16 161.35,69.26 155.04,69.37 148.31,69.52 141.58,69.67 134.54,69.89 127.51,70.11 122.51,70.45 117.51,70.79 114.52,71.01 111.53,71.24 108.18,71.82 104.84,72.40 101.33,72.46 97.82,72.53 94.99,72.46 92.17,72.40 88.90,72.38 85.63,72.37 82.70,72.26 79.77,72.15 76.18,72.04 72.58,71.94 69.67,71.49 66.77,71.03 63.53,70.06 60.29,69.09 56.78,67.29 53.27,65.50 50.76,63.75 48.24,62.01 44.30,60.52 40.36,59.03 38.14,57.46 35.91,55.89 32.03,54.39 28.16,52.88 25.53,50.45 22.90,48.02 20.42,45.71 17.94,43.41 15.62,41.23 13.30,39.06 10.83,36.42 8.36,33.78 7.00,30.83 5.64,27.88 4.91,24.93 4.19,21.99 4.03,18.33 3.87,14.67 1.21,10.97 -1.44,7.28 -2.87,4.98 -4.29,2.68 -4.55,2.13 -4.81,1.57 -4.93,0.98 -5.05,0.38 -5.02,-0.22 -4.99,-0.83 -4.82,-1.42 -4.65,-2.01 -4.34,-2.53 -4.03,-3.06 -3.61,-3.50 -3.18,-3.94 -2.66,-4.26 -2.14,-4.59 -1.56,-4.78 -0.98,-4.97 -0.37,-5.01 0.23,-5.06 0.83,-4.96 1.43,-4.86 1.99,-4.61 2.55,-4.37 3.04,-4.00 3.53,-3.63 3.91,-3.16 4.29,-2.68 4.29,-2.68 L 4.29,-2.68 Z"></path></g><g transform="translate(532 219) rotate(0 105 13)" stroke="none"><path fill="#1e1e1e" d="M 5.21,0 Q 5.21,0 5.02,3.73 4.82,7.47 4.91,9.63 4.99,11.80 5.17,14.91 5.35,18.03 5.50,20.64 5.65,23.25 8.09,23.46 10.53,23.68 12.94,23.64 15.34,23.59 17.94,23.57 20.54,23.54 23.63,24.68 26.73,25.83 31.10,26.32 35.46,26.80 38.77,27.06 42.08,27.31 44.94,27.40 47.79,27.48 52.75,27.52 57.72,27.55 61.82,27.87 65.93,28.19 68.53,28.14 71.14,28.10 74.26,28.13 77.38,28.17 80.15,28.14 82.91,28.12 85.52,28.08 88.13,28.04 90.68,28.00 93.23,27.96 95.75,27.93 98.27,27.89 102.46,27.77 106.66,27.65 109.63,27.70 112.60,27.76 119.04,28.09 125.48,28.42 128.79,28.46 132.10,28.49 134.37,28.39 136.64,28.29 139.70,28.07 142.75,27.86 145.35,27.69 147.95,27.52 150.47,27.38 152.99,27.24 155.49,27.13 158.00,27.02 160.58,27.07 163.17,27.12 166.54,27.05 169.91,26.98 173.43,26.94 176.95,26.90 179.88,26.83 182.81,26.76 185.64,26.83 188.47,26.89 192.62,25.82 196.77,24.75 199.42,24.75 202.07,24.76 203.22,21.91 204.37,19.07 203.84,16.38 203.31,13.69 203.32,10.78 203.32,7.86 203.30,5.29 203.27,2.72 200.07,2.77 196.87,2.82 194.34,2.69 191.80,2.57 188.41,2.33 185.02,2.08 182.14,1.98 179.25,1.87 175.16,1.52 171.06,1.16 168.74,1.20 166.42,1.25 164.00,1.28 161.58,1.30 158.30,1.44 155.03,1.58 150.96,1.61 146.88,1.64 144.33,1.62 141.77,1.61 138.42,1.71 135.07,1.81 130.73,1.82 126.40,1.84 121.76,1.80 117.13,1.76 114.50,1.72 111.88,1.68 108.46,1.51 105.04,1.35 101.29,1.47 97.54,1.58 94.82,1.71 92.09,1.83 88.61,1.64 85.14,1.45 81.65,1.28 78.15,1.12 75.23,1.10 72.31,1.07 68.77,0.94 65.23,0.81 62.19,0.79 59.15,0.77 56.37,-0.21 53.58,-1.19 51.40,-1.31 49.22,-1.44 46.65,-1.52 44.07,-1.60 41.46,-1.63 38.85,-1.66 36.30,-1.66 33.76,-1.67 31.25,-1.66 28.75,-1.66 24.04,-1.39 19.34,-1.12 16.94,-1.14 14.55,-1.16 12.10,-1.08 9.66,-1.00 7.74,-0.97 5.83,-0.94 4.86,-1.10 3.89,-1.26 3.03,-1.72 2.17,-2.18 1.50,-2.90 0.82,-3.61 0.42,-4.50 0.01,-5.39 -0.08,-6.37 -0.19,-7.34 0.02,-8.30 0.23,-9.25 0.74,-10.09 1.25,-10.93 2.00,-11.56 2.74,-12.19 3.66,-12.55 4.57,-12.91 5.55,-12.96 6.52,-13.01 7.47,-12.74 8.41,-12.48 9.22,-11.93 10.03,-11.37 10.62,-10.59 11.21,-9.81 11.52,-8.88 11.83,-7.95 11.82,-6.97 11.82,-5.99 11.50,-5.06 11.19,-4.14 10.59,-3.36 10.00,-2.58 9.18,-2.03 8.37,-1.49 7.43,-1.23 6.48,-0.97 5.50,-1.03 4.53,-1.08 3.62,-1.45 2.71,-1.81 1.96,-2.45 1.22,-3.09 0.72,-3.93 0.21,-4.77 0.01,-5.73 -0.19,-6.69 -0.08,-7.66 0.02,-8.63 0.43,-9.52 0.85,-10.41 1.52,-11.12 2.20,-11.83 3.07,-12.28 3.94,-12.74 4.90,-12.89 5.87,-13.05 5.87,-13.05 5.87,-13.05 9.01,-12.94 12.16,-12.83 14.98,-12.61 17.81,-12.39 20.26,-11.72 22.72,-11.05 25.71,-11.69 28.71,-12.32 31.26,-12.30 33.81,-12.29 36.38,-12.27 38.96,-12.25 41.64,-12.22 44.32,-12.19 48.93,-11.86 53.55,-11.52 56.54,-10.14 59.54,-8.77 62.39,-8.79 65.23,-8.81 68.77,-8.94 72.31,-9.07 75.23,-9.10 78.15,-9.12 81.65,-9.28 85.14,-9.45 88.61,-9.64 92.09,-9.83 94.82,-9.71 97.54,-9.58 101.29,-9.47 105.04,-9.35 108.46,-9.51 111.88,-9.68 114.50,-9.72 117.13,-9.76 121.76,-9.80 126.40,-9.84 130.73,-9.82 135.07,-9.81 138.42,-9.71 141.77,-9.61 144.33,-9.62 146.88,-9.64 150.96,-9.61 155.03,-9.58 158.31,-9.44 161.58,-9.30 164.00,-9.28 166.42,-9.25 168.74,-9.20 171.06,-9.16 175.16,-9.51 179.27,-9.87 182.15,-9.96 185.04,-10.06 188.46,-10.29 191.88,-10.52 196.10,-10.56 200.31,-10.60 203.83,-10.17 207.35,-9.74 210.46,-8.08 213.56,-6.42 215.14,-1.84 216.71,2.74 216.68,5.33 216.65,7.93 216.61,10.93 216.58,13.94 216.42,17.40 216.26,20.86 215.75,23.04 215.23,25.22 213.59,26.71 211.95,28.21 210.77,31.01 209.59,33.80 204.86,35.66 200.12,37.51 197.17,37.34 194.21,37.17 191.98,38.13 189.76,39.10 186.28,39.16 182.81,39.23 179.88,39.16 176.95,39.09 173.43,39.05 169.91,39.01 166.54,38.94 163.17,38.87 160.58,38.92 158.00,38.97 155.49,38.86 152.99,38.75 150.47,38.61 147.95,38.47 145.35,38.30 142.75,38.13 139.70,37.92 136.64,37.70 134.37,37.60 132.10,37.50 128.79,37.53 125.48,37.57 119.04,37.90 112.60,38.23 109.63,38.29 106.66,38.34 102.46,38.22 98.27,38.10 95.75,38.06 93.23,38.03 90.68,37.99 88.13,37.95 85.52,37.91 82.91,37.87 80.14,37.85 77.38,37.82 74.26,37.86 71.14,37.89 68.53,37.84 65.92,37.80 61.81,38.11 57.70,38.42 52.69,38.42 47.68,38.42 44.77,38.45 41.86,38.49 38.38,38.60 34.89,38.72 31.27,38.72 27.65,38.72 22.82,37.58 17.99,36.44 15.46,36.37 12.93,36.30 10.29,36.16 7.64,36.03 4.30,35.40 0.96,34.76 -1.25,33.16 -3.46,31.55 -4.55,27.40 -5.65,23.25 -5.50,20.64 -5.35,18.03 -5.17,14.91 -4.99,11.80 -4.91,9.63 -4.82,7.47 -5.02,3.73 -5.21,0 -5.13,-0.62 -5.06,-1.24 -4.83,-1.83 -4.61,-2.42 -4.25,-2.93 -3.90,-3.45 -3.43,-3.87 -2.96,-4.29 -2.40,-4.58 -1.84,-4.87 -1.23,-5.02 -0.62,-5.17 0.00,-5.17 0.62,-5.17 1.23,-5.02 1.84,-4.87 2.40,-4.58 2.96,-4.29 3.43,-3.87 3.90,-3.45 4.25,-2.93 4.61,-2.42 4.83,-1.83 5.06,-1.24 5.13,-0.62 5.21,0.00 5.21,0.00 L 5.21,0 Z"></path></g><g transform="translate(365 344) rotate(0 11 9)" stroke="none"><path fill="#1e1e1e" d="M 0,-5.30 Q 0,-5.30 2.58,-5.30 5.17,-5.31 8.54,-5.44 11.91,-5.58 14.34,-5.15 16.76,-4.72 18.81,-3.14 20.87,-1.57 22.67,1.62 24.47,4.81 21.06,8.08 17.64,11.34 18.51,10.78 19.37,10.21 20.36,9.95 21.36,9.69 22.39,9.76 23.42,9.83 24.37,10.23 25.32,10.63 26.10,11.31 26.87,11.99 27.39,12.88 27.91,13.77 28.11,14.78 28.32,15.79 28.19,16.81 28.06,17.83 27.62,18.76 27.17,19.69 26.45,20.43 25.73,21.17 24.81,21.63 23.89,22.10 22.87,22.25 21.85,22.40 20.84,22.22 19.82,22.04 18.92,21.54 18.02,21.05 17.32,20.29 16.62,19.53 16.21,18.58 15.79,17.64 15.69,16.62 15.60,15.59 15.83,14.59 16.07,13.58 16.62,12.71 17.16,11.83 17.96,11.18 18.75,10.52 19.72,10.16 20.68,9.79 21.71,9.75 22.74,9.71 23.73,10.00 24.72,10.29 25.56,10.89 26.41,11.48 27.02,12.31 27.63,13.14 27.94,14.12 28.26,15.10 28.24,16.13 28.22,17.16 27.88,18.14 27.53,19.11 26.90,19.92 26.26,20.73 26.26,20.73 26.26,20.73 21.60,18.94 16.93,17.14 15.43,15.36 13.93,13.57 12.92,9.57 11.91,5.58 8.54,5.44 5.17,5.31 2.58,5.30 0,5.30 -0.63,5.22 -1.26,5.14 -1.86,4.92 -2.46,4.69 -2.99,4.33 -3.51,3.97 -3.94,3.49 -4.36,3.01 -4.66,2.44 -4.95,1.88 -5.11,1.25 -5.26,0.63 -5.26,-0.00 -5.26,-0.63 -5.11,-1.26 -4.95,-1.88 -4.66,-2.44 -4.36,-3.01 -3.94,-3.49 -3.51,-3.97 -2.99,-4.33 -2.46,-4.69 -1.86,-4.92 -1.26,-5.15 -0.63,-5.22 0.00,-5.30 0.00,-5.30 L 0,-5.30 Z"></path></g><g transform="translate(362 342) rotate(0 -15 12.5)" stroke="none"><path fill="#1e1e1e" d="M 0,5.15 Q 0,5.15 -3.44,5.03 -6.89,4.91 -9.80,4.90 -12.70,4.90 -15.37,4.93 -18.05,4.96 -21.40,5.12 -24.76,5.28 -24.36,7.93 -23.96,10.58 -23.89,12.96 -23.83,15.35 -23.75,17.83 -23.68,20.31 -23.65,22.23 -23.62,24.15 -23.79,25.17 -23.96,26.18 -24.44,27.09 -24.93,28.00 -25.67,28.71 -26.42,29.42 -27.36,29.85 -28.29,30.29 -29.32,30.40 -30.34,30.51 -31.35,30.28 -32.36,30.06 -33.24,29.53 -34.12,29.00 -34.79,28.21 -35.45,27.43 -35.84,26.47 -36.22,25.51 -36.27,24.48 -36.33,23.45 -36.05,22.46 -35.77,21.47 -35.20,20.62 -34.62,19.76 -33.80,19.14 -32.97,18.52 -32.00,18.19 -31.02,17.86 -29.99,17.86 -28.96,17.86 -27.98,18.19 -27.01,18.52 -26.19,19.14 -25.37,19.77 -24.79,20.62 -24.21,21.48 -23.94,22.47 -23.66,23.46 -23.72,24.49 -23.77,25.52 -24.16,26.48 -24.54,27.43 -25.21,28.22 -25.87,29.00 -26.76,29.54 -27.64,30.07 -28.65,30.29 -29.65,30.51 -30.68,30.40 -31.70,30.28 -32.64,29.85 -33.57,29.42 -34.32,28.71 -35.07,28.00 -35.55,27.09 -36.03,26.18 -36.20,25.16 -36.36,24.14 -36.36,24.14 -36.36,24.14 -36.29,21.06 -36.22,17.98 -36.13,15.45 -36.03,12.92 -35.85,10.24 -35.67,7.56 -34.83,4.10 -33.98,0.65 -32.21,-1.37 -30.44,-3.40 -27.73,-4.34 -25.02,-5.28 -21.53,-5.12 -18.05,-4.96 -15.37,-4.93 -12.70,-4.90 -9.80,-4.90 -6.89,-4.91 -3.44,-5.03 0,-5.15 0.61,-5.08 1.23,-5.00 1.81,-4.78 2.39,-4.56 2.90,-4.21 3.41,-3.85 3.83,-3.39 4.24,-2.92 4.53,-2.37 4.82,-1.82 4.96,-1.22 5.11,-0.62 5.11,0.00 5.11,0.62 4.96,1.22 4.81,1.82 4.53,2.37 4.24,2.92 3.83,3.39 3.41,3.85 2.90,4.21 2.39,4.56 1.81,4.78 1.23,5.00 0.61,5.08 -0.00,5.15 -0.00,5.15 L 0,5.15 Z"></path></g><g transform="translate(342 349) rotate(0 13.5 9)" stroke="none"><path fill="#1e1e1e" d="M 2.36,-4.43 Q 2.36,-4.43 6.52,-1.85 10.69,0.71 12.92,1.51 15.15,2.32 17.63,3.25 20.10,4.18 23.52,4.85 26.94,5.52 28.79,7.19 30.63,8.87 31.54,12.80 32.45,16.73 32.38,17.63 32.31,18.52 31.96,19.34 31.60,20.17 31.01,20.84 30.41,21.51 29.63,21.95 28.85,22.39 27.97,22.56 27.09,22.73 26.20,22.61 25.31,22.49 24.51,22.10 23.70,21.70 23.07,21.07 22.43,20.43 22.03,19.63 21.63,18.83 21.51,17.94 21.39,17.05 21.55,16.17 21.72,15.29 22.16,14.51 22.60,13.73 23.27,13.13 23.93,12.53 24.76,12.17 25.58,11.82 26.47,11.74 27.37,11.67 28.24,11.88 29.11,12.10 29.87,12.58 30.62,13.06 31.19,13.76 31.75,14.46 32.06,15.30 32.37,16.14 32.40,17.04 32.42,17.93 32.16,18.79 31.90,19.65 31.38,20.38 30.85,21.11 30.13,21.63 29.40,22.15 28.54,22.42 27.69,22.68 26.79,22.66 25.89,22.64 25.05,22.33 24.21,22.02 23.51,21.46 22.81,20.90 22.32,20.15 21.84,19.39 21.62,18.52 21.40,17.65 21.40,17.65 21.40,17.65 21.26,15.91 21.12,14.16 18.87,13.52 16.62,12.89 14.17,11.83 11.72,10.78 9.13,9.63 6.55,8.48 2.09,6.45 -2.36,4.43 -2.85,4.08 -3.35,3.73 -3.75,3.28 -4.15,2.82 -4.42,2.28 -4.70,1.74 -4.84,1.16 -4.98,0.57 -4.98,-0.03 -4.98,-0.63 -4.83,-1.22 -4.68,-1.81 -4.39,-2.34 -4.11,-2.88 -3.70,-3.33 -3.30,-3.78 -2.80,-4.12 -2.30,-4.46 -1.73,-4.67 -1.16,-4.88 -0.56,-4.95 0.03,-5.02 0.63,-4.94 1.23,-4.86 1.79,-4.64 2.36,-4.43 2.36,-4.43 L 2.36,-4.43 Z"></path></g><g transform="translate(340 342) rotate(0 -19 12.5)" stroke="none"><path fill="#1e1e1e" d="M 0,5.12 Q 0,5.12 -2.87,5.11 -5.75,5.09 -9.27,4.96 -12.79,4.83 -17.79,4.32 -22.80,3.81 -26.38,3.66 -29.96,3.50 -30.90,5.65 -31.85,7.80 -31.94,11.35 -32.03,14.89 -31.97,17.53 -31.91,20.16 -31.17,22.10 -30.43,24.04 -30.31,25.03 -30.19,26.02 -30.39,27.00 -30.59,27.97 -31.09,28.84 -31.60,29.70 -32.35,30.35 -33.10,31.01 -34.03,31.39 -34.95,31.77 -35.94,31.84 -36.94,31.91 -37.91,31.65 -38.87,31.40 -39.70,30.85 -40.54,30.30 -41.15,29.51 -41.77,28.73 -42.10,27.79 -42.43,26.84 -42.44,25.85 -42.46,24.85 -42.15,23.90 -41.84,22.95 -41.25,22.14 -40.66,21.34 -39.84,20.77 -39.02,20.20 -38.06,19.92 -37.10,19.64 -36.10,19.68 -35.11,19.72 -34.17,20.08 -33.24,20.44 -32.47,21.07 -31.70,21.71 -31.18,22.56 -30.65,23.41 -30.42,24.38 -30.20,25.35 -30.29,26.35 -30.39,27.34 -30.79,28.25 -31.20,29.16 -31.88,29.90 -32.56,30.63 -33.43,31.11 -34.31,31.59 -35.29,31.76 -36.27,31.94 -37.26,31.79 -38.25,31.64 -39.14,31.18 -40.02,30.73 -40.72,30.01 -41.42,29.29 -41.85,28.39 -42.28,27.49 -42.28,27.49 -42.28,27.50 -43.11,22.58 -43.95,17.66 -43.78,14.49 -43.61,11.32 -43.47,8.78 -43.34,6.25 -42.80,3.43 -42.25,0.62 -40.79,-1.65 -39.33,-3.93 -34.39,-5.56 -29.46,-7.20 -27.02,-7.03 -24.57,-6.86 -22.46,-6.48 -20.34,-6.11 -16.56,-5.47 -12.79,-4.83 -9.27,-4.96 -5.75,-5.09 -2.87,-5.11 0,-5.12 0.61,-5.05 1.22,-4.97 1.80,-4.76 2.38,-4.54 2.89,-4.18 3.40,-3.83 3.81,-3.37 4.22,-2.91 4.50,-2.36 4.79,-1.81 4.94,-1.21 5.09,-0.61 5.09,0.00 5.09,0.61 4.94,1.21 4.79,1.81 4.50,2.36 4.22,2.91 3.81,3.37 3.40,3.83 2.89,4.19 2.38,4.54 1.80,4.76 1.22,4.97 0.61,5.05 -0.00,5.12 -0.00,5.12 L 0,5.12 Z"></path></g><g transform="translate(782 189) rotate(0 -386 -81)" stroke="none"><path fill="#1e1e1e" d="M -3.30,0 Q -3.30,0 -3.38,-3.44 -3.46,-6.89 -3.52,-10.37 -3.57,-13.85 -4.10,-17.36 -4.64,-20.88 -4.77,-25.53 -4.91,-30.19 -5.76,-34.75 -6.61,-39.31 -8.35,-44.63 -10.08,-49.94 -12.19,-54.42 -14.30,-58.90 -17.16,-63.64 -20.02,-68.37 -23.50,-73.23 -26.98,-78.09 -29.15,-81.72 -31.32,-85.35 -33.16,-88.93 -35.00,-92.51 -36.49,-95.42 -37.98,-98.33 -39.89,-100.65 -41.80,-102.98 -43.67,-105.57 -45.53,-108.17 -47.02,-111.91 -48.50,-115.66 -50.30,-119.90 -52.10,-124.14 -54.87,-127.04 -57.64,-129.95 -61.66,-133.27 -65.68,-136.60 -70.81,-140.34 -75.94,-144.08 -81.69,-147.03 -87.44,-149.98 -95.40,-151.75 -103.36,-153.53 -111.02,-154.31 -118.69,-155.10 -124.19,-156.34 -129.69,-157.58 -136.08,-158.07 -142.47,-158.56 -149.52,-158.78 -156.57,-159.01 -163.88,-159.10 -171.19,-159.20 -178.61,-159.24 -186.03,-159.29 -194.35,-159.31 -202.68,-159.33 -211.11,-159.34 -219.54,-159.35 -228.29,-159.35 -237.05,-159.36 -245.66,-159.36 -254.27,-159.36 -263.68,-159.36 -273.09,-159.36 -287.96,-158.79 -302.83,-158.22 -316.97,-157.97 -331.10,-157.73 -346.59,-157.62 -362.09,-157.52 -377.23,-156.62 -392.36,-155.71 -405.19,-155.33 -418.01,-154.94 -430.02,-154.20 -442.03,-153.46 -451.96,-152.30 -461.89,-151.13 -471.14,-148.65 -480.38,-146.17 -490.15,-143.66 -499.92,-141.15 -507.66,-140.06 -515.40,-138.97 -520.81,-137.68 -526.22,-136.38 -530.71,-135.80 -535.21,-135.22 -539.27,-134.42 -543.33,-133.62 -546.81,-131.91 -550.30,-130.21 -555.11,-129.35 -559.93,-128.50 -566.12,-127.32 -572.31,-126.14 -580.87,-125.62 -589.43,-125.10 -598.22,-124.89 -607.01,-124.67 -614.19,-124.58 -621.37,-124.49 -626.72,-124.46 -632.07,-124.42 -635.79,-124.29 -639.50,-124.16 -641.65,-123.91 -643.80,-123.66 -646.16,-123.46 -648.51,-123.27 -651.81,-123.21 -655.12,-123.15 -661.41,-123.31 -667.70,-123.48 -674.68,-123.60 -681.67,-123.72 -688.95,-123.81 -696.23,-123.89 -705.08,-123.96 -713.92,-124.02 -722.09,-124.65 -730.27,-125.28 -737.38,-125.55 -744.49,-125.83 -749.55,-125.96 -754.60,-126.09 -758.02,-126.87 -761.44,-127.66 -765.85,-129.72 -770.25,-131.79 -772.68,-134.04 -775.10,-136.29 -775.35,-136.90 -775.61,-137.50 -775.66,-138.16 -775.71,-138.82 -775.54,-139.45 -775.38,-140.09 -775.02,-140.64 -774.66,-141.19 -774.14,-141.60 -773.63,-142.01 -773.01,-142.23 -772.39,-142.45 -771.73,-142.47 -771.07,-142.48 -770.44,-142.28 -769.82,-142.08 -769.29,-141.69 -768.75,-141.30 -768.37,-140.77 -767.99,-140.23 -767.81,-139.60 -767.62,-138.97 -767.64,-138.31 -767.67,-137.65 -767.90,-137.04 -768.13,-136.42 -768.55,-135.91 -768.96,-135.40 -769.52,-135.05 -770.08,-134.70 -770.72,-134.55 -771.36,-134.39 -772.01,-134.45 -772.67,-134.51 -773.27,-134.78 -773.87,-135.04 -774.36,-135.49 -774.85,-135.93 -775.17,-136.51 -775.48,-137.08 -775.60,-137.73 -775.72,-138.38 -775.63,-139.03 -775.53,-139.68 -775.24,-140.27 -774.94,-140.85 -774.47,-141.31 -774.00,-141.78 -773.41,-142.06 -772.82,-142.35 -772.16,-142.43 -771.51,-142.52 -770.86,-142.39 -770.22,-142.26 -769.65,-141.93 -769.08,-141.60 -768.64,-141.11 -768.21,-140.61 -768.21,-140.61 -768.21,-140.62 -766.53,-139.04 -764.86,-137.47 -762.25,-135.56 -759.64,-133.65 -757.04,-132.62 -754.43,-131.60 -749.37,-131.52 -744.30,-131.44 -737.08,-131.23 -729.86,-131.01 -721.89,-130.49 -713.92,-129.97 -705.08,-130.03 -696.23,-130.10 -688.95,-130.18 -681.67,-130.27 -674.68,-130.39 -667.70,-130.51 -661.41,-130.68 -655.12,-130.84 -651.82,-130.79 -648.52,-130.73 -646.17,-130.54 -643.83,-130.35 -641.67,-130.12 -639.52,-129.88 -635.82,-129.78 -632.11,-129.68 -626.77,-129.72 -621.44,-129.76 -614.29,-129.86 -607.14,-129.95 -598.44,-130.16 -589.75,-130.38 -581.52,-130.86 -573.30,-131.35 -567.06,-132.54 -560.81,-133.73 -556.67,-134.39 -552.52,-135.05 -548.45,-136.91 -544.38,-138.78 -540.13,-139.60 -535.88,-140.43 -531.65,-140.96 -527.43,-141.49 -521.78,-142.83 -516.13,-144.17 -508.68,-145.21 -501.22,-146.24 -491.48,-148.75 -481.73,-151.25 -472.12,-153.80 -462.51,-156.34 -452.43,-157.53 -442.35,-158.71 -430.26,-159.45 -418.17,-160.19 -405.42,-160.57 -392.67,-160.96 -377.40,-161.87 -362.13,-162.78 -346.66,-162.88 -331.19,-162.98 -317.11,-163.23 -303.03,-163.47 -288.06,-164.05 -273.09,-164.63 -263.68,-164.63 -254.27,-164.63 -245.66,-164.63 -237.05,-164.63 -228.29,-164.62 -219.53,-164.62 -211.10,-164.62 -202.67,-164.61 -194.34,-164.60 -186.00,-164.59 -178.56,-164.55 -171.12,-164.52 -163.76,-164.43 -156.40,-164.34 -149.23,-164.13 -142.06,-163.92 -135.28,-163.39 -128.51,-162.87 -123.32,-161.71 -118.14,-160.55 -110.14,-159.75 -102.14,-158.96 -93.53,-157.01 -84.91,-155.06 -78.73,-151.95 -72.55,-148.84 -67.21,-145.08 -61.86,-141.32 -57.46,-137.85 -53.05,-134.37 -49.53,-130.73 -46.00,-127.08 -43.82,-122.69 -41.63,-118.29 -40.52,-115.25 -39.40,-112.20 -37.84,-109.64 -36.29,-107.08 -34.20,-104.04 -32.12,-101.00 -30.97,-98.04 -29.81,-95.09 -28.16,-91.64 -26.50,-88.19 -24.50,-84.75 -22.50,-81.32 -18.86,-76.31 -15.22,-71.30 -12.17,-66.35 -9.11,-61.40 -6.78,-56.62 -4.44,-51.85 -2.48,-46.20 -0.52,-40.55 0.55,-35.55 1.64,-30.56 1.99,-26.25 2.34,-21.94 2.95,-17.90 3.57,-13.86 3.52,-10.38 3.46,-6.89 3.38,-3.44 3.30,0 3.25,0.39 3.20,0.79 3.06,1.16 2.92,1.53 2.69,1.86 2.47,2.19 2.17,2.45 1.87,2.71 1.52,2.90 1.17,3.08 0.78,3.18 0.39,3.28 -0.00,3.28 -0.39,3.28 -0.78,3.18 -1.17,3.08 -1.52,2.90 -1.87,2.71 -2.17,2.45 -2.47,2.19 -2.69,1.86 -2.92,1.53 -3.06,1.16 -3.20,0.79 -3.25,0.39 -3.30,-0.00 -3.30,-0.00 L -3.30,0 Z"></path></g><g transform="translate(67 10) rotate(0 86.87992095947266 12.5)"><text x="0" y="0" font-family="Virgil, Segoe UI Emoji" font-size="20px" fill="#e03131" text-anchor="start" style="white-space: pre;" direction="ltr" dominant-baseline="text-before-edge">Energie électrique</text></g><g transform="translate(112 52) rotate(0 8.5 15)" stroke="none"><path fill="#e03131" d="M 1.38,-1.93 Q 1.38,-1.93 3.31,-0.38 5.24,1.16 6.96,2.77 8.67,4.37 9.79,4.82 10.91,5.26 12.10,5.40 13.28,5.55 14.47,5.60 15.66,5.65 15.92,5.73 16.17,5.82 16.40,5.95 16.63,6.09 16.81,6.28 17.00,6.47 17.14,6.70 17.28,6.93 17.35,7.18 17.43,7.44 17.45,7.70 17.46,7.97 17.41,8.23 17.36,8.50 17.25,8.74 17.14,8.98 16.98,9.19 16.81,9.40 16.60,9.56 16.39,9.73 16.15,9.83 15.90,9.94 15.64,9.99 15.38,10.04 15.11,10.02 14.85,10.00 16.08,9.67 17.32,9.34 17.20,11.76 17.09,14.19 16.25,15.26 15.41,16.34 14.40,17.27 13.39,18.20 12.14,19.62 10.89,21.04 10.38,23.80 9.88,26.56 8.88,27.69 7.88,28.82 6.26,30.46 4.63,32.10 4.23,32.23 3.83,32.36 3.40,32.35 2.98,32.35 2.58,32.21 2.18,32.06 1.85,31.80 1.51,31.54 1.28,31.19 1.05,30.83 0.94,30.42 0.83,30.01 0.86,29.59 0.89,29.16 1.05,28.77 1.22,28.38 1.50,28.06 1.78,27.74 2.14,27.53 2.51,27.32 2.92,27.23 3.34,27.15 3.76,27.20 4.18,27.25 4.56,27.44 4.95,27.62 5.25,27.92 5.55,28.21 5.75,28.59 5.94,28.97 6.00,29.39 6.06,29.81 5.99,30.22 5.91,30.64 5.71,31.01 5.50,31.39 5.19,31.67 4.88,31.96 4.49,32.13 4.10,32.30 3.68,32.34 3.26,32.38 2.85,32.28 2.43,32.19 2.07,31.96 1.71,31.74 1.44,31.41 1.18,31.08 1.02,30.69 0.87,30.29 0.86,29.87 0.84,29.44 0.96,29.04 1.08,28.63 1.32,28.28 1.57,27.93 1.91,27.68 2.25,27.43 2.25,27.43 2.25,27.43 3.81,26.14 5.37,24.85 5.68,23.47 6.00,22.09 7.28,19.64 8.57,17.19 9.22,15.94 9.88,14.68 11.29,12.97 12.71,11.26 12.80,10.04 12.89,8.81 14.28,7.23 15.66,5.65 15.92,5.73 16.17,5.81 16.40,5.95 16.63,6.09 16.81,6.28 17.00,6.47 17.14,6.70 17.28,6.93 17.35,7.18 17.43,7.44 17.45,7.70 17.46,7.97 17.41,8.23 17.36,8.49 17.25,8.74 17.14,8.98 16.98,9.19 16.81,9.40 16.60,9.56 16.39,9.73 16.15,9.83 15.90,9.94 15.64,9.99 15.38,10.04 15.11,10.02 14.85,10.00 13.68,9.83 12.52,9.66 10.87,9.27 9.22,8.88 7.73,8.07 6.24,7.26 4.52,5.92 2.80,4.58 0.70,3.26 -1.38,1.93 -1.59,1.74 -1.80,1.54 -1.96,1.31 -2.12,1.07 -2.22,0.80 -2.32,0.53 -2.35,0.24 -2.38,-0.03 -2.34,-0.32 -2.30,-0.60 -2.19,-0.87 -2.08,-1.14 -1.92,-1.37 -1.75,-1.60 -1.53,-1.79 -1.32,-1.98 -1.06,-2.11 -0.80,-2.23 -0.52,-2.30 -0.24,-2.36 0.03,-2.36 0.32,-2.35 0.60,-2.28 0.88,-2.21 1.13,-2.07 1.38,-1.93 1.38,-1.93 L 1.38,-1.93 Z"></path></g><g transform="translate(377 23) rotate(0 11 8)" stroke="none"><path fill="#e03131" d="M -0.49,-2.48 Q -0.49,-2.48 0.94,-2.76 2.38,-3.04 3.68,-3.20 4.98,-3.37 6.43,-3.42 7.88,-3.48 9.66,-3.19 11.44,-2.90 12.33,-1.90 13.23,-0.89 14.55,-0.92 15.88,-0.95 17.04,-0.89 18.21,-0.83 19.67,-0.64 21.12,-0.45 21.24,-0.08 21.36,0.29 21.69,0.34 22.03,0.39 22.35,0.52 22.67,0.65 22.94,0.85 23.22,1.05 23.44,1.31 23.66,1.57 23.81,1.88 23.96,2.19 24.04,2.52 24.11,2.86 24.10,3.20 24.09,3.54 24.00,3.87 23.91,4.20 23.75,4.50 23.58,4.80 23.35,5.05 23.11,5.30 22.83,5.48 22.54,5.67 22.22,5.78 21.90,5.90 21.56,5.93 21.22,5.96 20.82,7.42 20.43,8.89 19.05,9.09 17.67,9.29 16.76,10.00 15.85,10.70 15.17,12.04 14.49,13.38 14.13,13.46 13.78,13.54 13.42,13.53 13.06,13.52 12.71,13.43 12.36,13.34 12.04,13.16 11.72,12.98 11.45,12.74 11.19,12.49 10.99,12.19 10.79,11.88 10.67,11.54 10.55,11.20 10.51,10.84 10.48,10.48 10.53,10.12 10.58,9.76 10.72,9.42 10.85,9.09 11.07,8.80 11.28,8.50 11.56,8.27 11.83,8.03 12.16,7.87 12.48,7.71 13.35,10.40 14.22,13.09 13.86,13.17 13.50,13.25 13.14,13.24 12.77,13.23 12.42,13.14 12.06,13.04 11.74,12.86 11.42,12.69 11.16,12.44 10.89,12.19 10.69,11.88 10.49,11.58 10.36,11.23 10.24,10.89 10.21,10.53 10.17,10.16 10.22,9.80 10.27,9.44 10.41,9.10 10.55,8.76 10.76,8.46 10.98,8.17 11.26,7.93 11.54,7.69 11.86,7.53 12.19,7.37 13.40,10.34 14.61,13.30 13.63,13.75 12.65,14.19 11.99,16.67 11.33,19.14 11.06,19.57 10.79,20.00 10.40,20.31 10.00,20.63 9.53,20.81 9.05,20.98 8.55,21.00 8.04,21.01 7.56,20.87 7.07,20.72 6.66,20.42 6.25,20.13 5.96,19.72 5.66,19.31 5.51,18.83 5.36,18.34 5.37,17.84 5.38,17.33 5.56,16.86 5.73,16.38 6.05,15.99 6.36,15.59 6.79,15.32 7.21,15.04 7.71,14.92 8.20,14.80 8.70,14.84 9.20,14.88 9.67,15.08 10.14,15.28 10.51,15.61 10.89,15.95 11.14,16.39 11.39,16.83 11.49,17.33 11.58,17.82 11.52,18.32 11.45,18.83 11.22,19.28 11.00,19.73 10.64,20.09 10.29,20.45 9.83,20.68 9.38,20.90 8.88,20.97 8.38,21.04 7.88,20.95 7.39,20.85 6.94,20.60 6.50,20.36 6.16,19.98 5.83,19.60 5.63,19.14 5.42,18.67 5.38,18.17 5.34,17.67 5.46,17.18 5.58,16.68 5.58,16.68 5.58,16.69 6.72,14.08 7.85,11.48 9.71,10.34 11.56,9.19 12.89,11.14 14.22,13.09 13.86,13.17 13.50,13.25 13.14,13.24 12.77,13.23 12.42,13.14 12.06,13.04 11.74,12.86 11.42,12.69 11.16,12.44 10.89,12.19 10.69,11.88 10.49,11.58 10.36,11.23 10.24,10.89 10.21,10.53 10.17,10.16 10.22,9.80 10.27,9.44 10.41,9.10 10.55,8.76 10.76,8.46 10.98,8.17 11.26,7.93 11.54,7.69 11.86,7.53 12.19,7.37 13.34,10.38 14.49,13.38 14.13,13.46 13.78,13.54 13.42,13.53 13.06,13.52 12.71,13.43 12.36,13.34 12.04,13.16 11.72,12.98 11.45,12.74 11.19,12.49 10.99,12.19 10.79,11.88 10.67,11.54 10.55,11.20 10.51,10.84 10.48,10.48 10.53,10.12 10.58,9.76 10.72,9.43 10.85,9.09 11.07,8.80 11.28,8.50 11.56,8.27 11.83,8.03 12.16,7.87 12.48,7.71 13.02,6.90 13.56,6.09 14.62,5.14 15.68,4.18 16.75,4.32 17.82,4.45 18.20,3.16 18.58,1.87 19.97,1.08 21.36,0.29 21.69,0.34 22.03,0.39 22.35,0.52 22.67,0.65 22.94,0.85 23.22,1.05 23.44,1.31 23.66,1.57 23.81,1.88 23.96,2.19 24.04,2.52 24.11,2.86 24.10,3.20 24.09,3.54 24.00,3.87 23.91,4.20 23.75,4.50 23.58,4.80 23.35,5.05 23.11,5.30 22.83,5.48 22.54,5.67 22.22,5.78 21.90,5.90 21.56,5.93 21.22,5.96 19.58,5.30 17.93,4.64 16.50,4.57 15.06,4.50 13.81,4.27 12.55,4.03 10.31,2.84 8.07,1.64 6.79,1.68 5.50,1.73 4.43,1.81 3.36,1.89 1.93,2.19 0.49,2.48 0.19,2.51 -0.11,2.53 -0.41,2.48 -0.71,2.43 -0.99,2.31 -1.27,2.19 -1.52,2.00 -1.76,1.82 -1.95,1.58 -2.15,1.34 -2.28,1.07 -2.41,0.79 -2.47,0.49 -2.53,0.19 -2.51,-0.11 -2.50,-0.41 -2.41,-0.71 -2.33,-1.00 -2.17,-1.26 -2.02,-1.53 -1.80,-1.75 -1.59,-1.97 -1.33,-2.13 -1.07,-2.29 -0.78,-2.39 -0.49,-2.48 -0.49,-2.48 L -0.49,-2.48 Z"></path></g><g transform="translate(564 15) rotate(0 3 11)" stroke="none"><path fill="#e03131" d="M 1.64,-1.64 Q 1.64,-1.64 2.98,-0.15 4.31,1.34 5.48,1.73 6.65,2.12 8.06,3.04 9.47,3.96 10.93,5.31 12.39,6.66 13.25,8.01 14.10,9.36 14.49,10.99 14.88,12.61 14.89,14.25 14.91,15.88 14.18,17.00 13.46,18.12 12.37,19.16 11.28,20.20 9.90,20.93 8.52,21.65 6.91,21.94 5.29,22.23 4.07,22.35 2.85,22.47 1.45,22.51 0.05,22.55 -1.07,22.58 -2.19,22.61 -3.63,23.37 -5.07,24.14 -5.50,24.25 -5.92,24.35 -6.36,24.32 -6.81,24.28 -7.21,24.11 -7.62,23.93 -7.95,23.64 -8.28,23.34 -8.49,22.96 -8.71,22.57 -8.79,22.14 -8.88,21.71 -8.82,21.27 -8.76,20.83 -8.56,20.43 -8.37,20.04 -8.05,19.72 -7.74,19.41 -7.35,19.22 -6.95,19.02 -6.51,18.96 -6.07,18.90 -5.64,18.98 -5.21,19.07 -4.82,19.28 -4.44,19.50 -4.14,19.83 -3.85,20.16 -3.67,20.56 -3.50,20.97 -3.46,21.41 -3.42,21.85 -3.53,22.28 -3.64,22.71 -3.88,23.08 -4.11,23.45 -4.46,23.73 -4.80,24.01 -5.22,24.16 -5.63,24.31 -6.07,24.32 -6.52,24.34 -6.94,24.21 -7.36,24.08 -7.72,23.82 -8.08,23.56 -8.34,23.20 -8.59,22.84 -8.72,22.42 -8.85,22.00 -8.84,21.56 -8.83,21.12 -8.68,20.70 -8.53,20.29 -8.25,19.94 -7.97,19.60 -7.60,19.36 -7.23,19.12 -7.23,19.12 -7.23,19.12 -4.82,18.23 -2.41,17.34 -1.25,17.34 -0.08,17.34 2.23,17.26 4.55,17.19 6.24,16.91 7.93,16.63 9.15,15.04 10.38,13.45 9.96,11.59 9.54,9.74 8.25,8.65 6.97,7.56 5.98,6.81 4.99,6.06 3.21,5.23 1.43,4.40 -0.10,3.02 -1.64,1.64 -1.82,1.42 -1.99,1.20 -2.11,0.95 -2.22,0.69 -2.27,0.41 -2.32,0.14 -2.31,-0.13 -2.29,-0.42 -2.21,-0.68 -2.12,-0.95 -1.98,-1.19 -1.83,-1.43 -1.63,-1.63 -1.43,-1.83 -1.19,-1.98 -0.95,-2.12 -0.68,-2.21 -0.42,-2.29 -0.13,-2.31 0.14,-2.32 0.41,-2.27 0.69,-2.22 0.95,-2.11 1.20,-1.99 1.42,-1.82 1.64,-1.64 1.64,-1.64 L 1.64,-1.64 Z"></path></g><g transform="translate(737 45) rotate(0 -12.5 18.5)" stroke="none"><path fill="#e03131" d="M 2.04,0 Q 2.04,0 1.94,3.44 1.85,6.89 1.77,9.80 1.70,12.70 1.65,15.37 1.59,18.05 1.56,21.48 1.52,24.92 1.51,26.95 1.50,28.99 1.56,30.71 1.62,32.44 1.63,33.95 1.64,35.46 0.86,36.57 0.08,37.68 -1.46,38.21 -3.01,38.73 -5.34,38.18 -7.68,37.63 -9.30,36.79 -10.93,35.94 -12.13,35.74 -13.33,35.54 -15.56,34.37 -17.79,33.19 -19.10,32.86 -20.41,32.54 -22.37,32.39 -24.33,32.23 -24.66,32.14 -24.99,32.04 -25.28,31.84 -25.56,31.64 -25.77,31.36 -25.97,31.09 -26.08,30.76 -26.18,30.43 -26.18,30.08 -26.18,29.73 -26.06,29.41 -25.94,29.08 -25.73,28.81 -25.52,28.53 -25.23,28.34 -24.94,28.15 -24.60,28.06 -24.27,27.98 -23.92,28.00 -23.58,28.02 -23.26,28.16 -22.94,28.29 -22.68,28.52 -22.42,28.74 -22.24,29.04 -22.07,29.34 -22.00,29.68 -21.93,30.02 -21.97,30.37 -22.01,30.71 -22.16,31.02 -22.31,31.34 -22.55,31.58 -22.79,31.83 -23.10,31.99 -23.41,32.15 -23.75,32.20 -24.10,32.25 -24.44,32.19 -24.78,32.13 -25.08,31.96 -25.39,31.80 -25.62,31.54 -25.86,31.29 -26.00,30.97 -26.14,30.65 -26.17,30.31 -26.20,29.96 -26.12,29.63 -26.04,29.29 -25.86,28.99 -25.68,28.70 -25.41,28.48 -25.15,28.26 -24.82,28.13 -24.50,28.01 -24.15,28.00 -23.81,27.98 -23.81,27.98 -23.81,27.98 -21.55,28.35 -19.30,28.71 -17.71,29.24 -16.13,29.77 -14.25,30.59 -12.37,31.42 -10.67,31.89 -8.97,32.35 -7.82,33.05 -6.67,33.76 -4.15,34.21 -1.64,34.66 -1.63,33.55 -1.62,32.44 -1.56,30.71 -1.50,28.99 -1.51,26.95 -1.52,24.92 -1.56,21.48 -1.59,18.05 -1.65,15.37 -1.70,12.70 -1.77,9.80 -1.85,6.89 -1.94,3.44 -2.04,0 -2.01,-0.24 -1.98,-0.48 -1.89,-0.71 -1.81,-0.95 -1.67,-1.15 -1.53,-1.35 -1.34,-1.51 -1.16,-1.68 -0.94,-1.79 -0.72,-1.91 -0.48,-1.97 -0.24,-2.03 0.00,-2.03 0.24,-2.03 0.48,-1.97 0.72,-1.91 0.94,-1.79 1.16,-1.68 1.34,-1.51 1.53,-1.35 1.67,-1.15 1.81,-0.95 1.89,-0.71 1.98,-0.48 2.01,-0.24 2.04,0.00 2.04,0.00 L 2.04,0 Z"></path></g><g transform="translate(770 165) rotate(0 21 17.5)" stroke="none"><path fill="#e03131" d="M 2.09,-0.69 Q 2.09,-0.69 3.13,2.78 4.17,6.27 5.40,9.11 6.63,11.95 7.19,14.20 7.75,16.46 8.09,17.99 8.42,19.53 8.59,21.10 8.76,22.66 8.88,23.90 9.00,25.14 9.07,26.53 9.13,27.93 9.19,29.10 9.26,30.27 9.19,31.39 9.12,32.51 10.04,31.86 10.96,31.21 12.77,29.93 14.58,28.65 16.91,26.69 19.24,24.74 20.10,23.24 20.96,21.74 21.36,19.80 21.77,17.86 23.03,15.97 24.29,14.09 27.13,13.24 29.96,12.40 31.96,12.10 33.95,11.80 35.33,11.61 36.71,11.41 37.76,10.63 38.82,9.84 39.38,8.68 39.94,7.53 40.15,7.29 40.37,7.05 40.65,6.90 40.93,6.74 41.24,6.68 41.56,6.62 41.87,6.66 42.19,6.71 42.48,6.85 42.77,6.99 42.99,7.22 43.22,7.45 43.36,7.73 43.50,8.02 43.55,8.34 43.59,8.66 43.53,8.97 43.47,9.29 43.31,9.56 43.15,9.84 42.91,10.06 42.67,10.27 42.38,10.40 42.08,10.52 41.76,10.55 41.44,10.57 41.13,10.50 40.82,10.42 40.55,10.25 40.28,10.07 40.08,9.82 39.88,9.57 39.77,9.27 39.66,8.97 39.65,8.65 39.64,8.33 39.74,8.02 39.83,7.72 40.02,7.46 40.21,7.20 40.47,7.01 40.73,6.82 41.04,6.73 41.34,6.64 41.66,6.64 41.98,6.65 42.28,6.76 42.59,6.88 42.83,7.08 43.08,7.28 43.26,7.55 43.43,7.82 43.51,8.13 43.58,8.44 43.56,8.76 43.53,9.08 43.40,9.38 43.28,9.67 43.28,9.67 43.28,9.67 42.08,11.26 40.88,12.85 39.03,13.88 37.19,14.92 35.79,14.95 34.40,14.99 32.58,15.24 30.76,15.48 28.69,15.91 26.61,16.35 25.79,17.47 24.97,18.59 24.52,21.02 24.08,23.45 22.93,25.47 21.79,27.49 19.42,29.75 17.05,32.01 14.55,33.88 12.05,35.76 9.72,35.97 7.39,36.17 6.12,34.82 4.86,33.48 4.78,31.89 4.71,30.30 4.76,29.14 4.80,27.99 4.83,26.64 4.86,25.29 4.89,24.11 4.92,22.93 4.88,21.53 4.85,20.12 4.69,18.73 4.54,17.34 3.95,15.40 3.37,13.46 1.89,10.49 0.42,7.52 -0.83,4.11 -2.09,0.69 -2.15,0.43 -2.20,0.17 -2.19,-0.08 -2.18,-0.35 -2.10,-0.61 -2.03,-0.86 -1.89,-1.09 -1.76,-1.32 -1.58,-1.52 -1.39,-1.71 -1.17,-1.85 -0.94,-1.99 -0.69,-2.08 -0.44,-2.16 -0.17,-2.18 0.09,-2.20 0.35,-2.16 0.61,-2.12 0.86,-2.01 1.10,-1.91 1.31,-1.75 1.53,-1.59 1.70,-1.38 1.86,-1.18 1.98,-0.93 2.09,-0.69 2.09,-0.69 L 2.09,-0.69 Z"></path></g><g transform="translate(130 315) rotate(0 86.49993133544922 12.5)"><text x="0" y="0" font-family="Virgil, Segoe UI Emoji" font-size="20px" fill="#2f9e44" text-anchor="start" style="white-space: pre;" direction="ltr" dominant-baseline="text-before-edge">Energie mécanique</text></g><g transform="translate(300 357) rotate(0 47.5 12.5)" stroke="none"><path fill="#2f9e44" d="M 2.35,-0.67 Q 2.35,-0.67 2.80,1.37 3.24,3.42 3.49,5.29 3.75,7.16 3.91,8.52 4.06,9.89 3.93,10.99 3.80,12.09 5.12,13.27 6.43,14.46 7.49,15.80 8.55,17.14 10.08,17.17 11.61,17.20 11.90,17.37 12.18,17.54 12.42,17.77 12.66,18.00 12.83,18.28 13.01,18.56 13.11,18.88 13.21,19.19 13.24,19.52 13.26,19.85 13.21,20.18 13.15,20.50 13.02,20.81 12.89,21.11 12.69,21.37 12.49,21.64 12.23,21.85 11.98,22.05 11.68,22.19 11.38,22.33 11.05,22.40 10.73,22.46 10.40,22.45 10.06,22.43 9.75,22.34 9.43,22.25 10.37,19.81 11.30,17.37 11.59,17.54 11.87,17.71 12.11,17.94 12.34,18.16 12.52,18.44 12.69,18.72 12.79,19.04 12.90,19.35 12.92,19.68 12.95,20.00 12.89,20.33 12.84,20.65 12.71,20.96 12.58,21.26 12.38,21.52 12.18,21.78 11.92,21.99 11.67,22.20 11.37,22.34 11.07,22.48 10.75,22.54 10.42,22.60 10.09,22.59 9.77,22.57 9.45,22.48 9.13,22.39 10.28,19.78 11.42,17.18 12.51,17.20 13.60,17.22 15.20,17.95 16.80,18.67 18.02,19.02 19.25,19.37 20.33,20.68 21.42,21.99 22.52,21.96 23.62,21.93 25.86,22.03 28.10,22.13 29.22,22.13 30.35,22.14 31.68,22.17 33.02,22.19 34.16,22.19 35.31,22.18 36.65,22.20 38.00,22.22 39.15,22.21 40.30,22.20 41.65,22.22 43.00,22.24 44.15,22.23 45.30,22.22 46.65,22.23 48.00,22.25 49.15,22.24 50.30,22.23 51.65,22.24 53.00,22.26 54.15,22.25 55.30,22.23 56.65,22.25 58.00,22.26 59.15,22.25 60.30,22.24 61.65,22.25 63.00,22.27 64.15,22.25 65.30,22.24 66.65,22.26 68.00,22.27 69.15,22.26 70.30,22.24 71.65,22.26 73.00,22.27 74.80,19.95 76.61,17.62 77.80,17.07 78.98,16.52 80.22,14.59 81.46,12.66 81.73,10.93 82.01,9.21 82.08,8.01 82.16,6.82 82.18,5.71 82.20,4.61 81.62,2.71 81.04,0.81 81.09,0.48 81.13,0.15 81.26,-0.16 81.38,-0.47 81.57,-0.75 81.77,-1.02 82.02,-1.24 82.27,-1.46 82.57,-1.61 82.87,-1.77 83.20,-1.84 83.53,-1.92 83.87,-1.92 84.20,-1.91 84.53,-1.83 84.85,-1.75 85.15,-1.59 85.45,-1.43 85.70,-1.20 85.95,-0.98 86.13,-0.70 86.32,-0.42 86.44,-0.10 86.55,0.20 86.59,0.54 86.63,0.87 86.11,2.01 85.60,3.15 84.50,4.28 83.40,5.41 82.42,6.36 81.45,7.30 80.06,8.88 78.68,10.45 77.38,9.65 76.09,8.85 75.71,7.69 75.33,6.53 75.41,3.88 75.48,1.23 76.40,-0.07 77.32,-1.37 78.66,-1.92 80.01,-2.47 81.92,-2.45 83.82,-2.42 85.00,-1.68 86.19,-0.94 87.47,0.51 88.75,1.98 90.22,3.05 91.69,4.12 92.76,5.53 93.84,6.93 94.71,6.90 95.58,6.88 96.00,7.14 96.43,7.41 96.74,7.80 97.06,8.19 97.23,8.66 97.41,9.13 97.42,9.63 97.44,10.13 97.30,10.61 97.15,11.09 96.86,11.50 96.57,11.91 96.16,12.20 95.76,12.50 95.28,12.65 94.80,12.80 94.30,12.79 93.80,12.78 93.33,12.60 92.85,12.43 92.46,12.12 92.07,11.81 91.80,11.39 91.53,10.97 91.40,10.48 91.28,9.99 91.32,9.49 91.36,8.99 91.55,8.53 91.75,8.07 92.08,7.70 92.41,7.32 92.85,7.07 93.28,6.82 93.78,6.73 94.27,6.63 94.77,6.70 95.26,6.76 95.71,6.98 96.16,7.20 96.52,7.56 96.88,7.91 97.10,8.36 97.33,8.80 97.40,9.30 97.47,9.80 97.37,10.29 97.28,10.78 97.04,11.22 96.79,11.66 96.42,12.00 96.05,12.33 95.59,12.53 95.13,12.73 94.63,12.78 94.13,12.82 93.64,12.70 93.16,12.58 93.16,12.58 93.16,12.58 91.12,10.64 89.09,8.69 88.08,7.79 87.07,6.90 85.65,6.04 84.24,5.18 83.41,3.94 82.59,2.71 81.73,3.50 80.87,4.30 80.65,5.76 80.42,7.22 79.49,6.47 78.55,5.73 78.00,4.73 77.46,3.73 79.25,2.27 81.04,0.81 81.09,0.48 81.13,0.15 81.26,-0.16 81.38,-0.47 81.57,-0.75 81.77,-1.02 82.02,-1.24 82.27,-1.46 82.57,-1.61 82.87,-1.77 83.20,-1.84 83.53,-1.92 83.87,-1.92 84.20,-1.91 84.53,-1.83 84.85,-1.75 85.15,-1.59 85.45,-1.43 85.70,-1.20 85.94,-0.98 86.13,-0.70 86.32,-0.42 86.44,-0.10 86.55,0.20 86.59,0.54 86.63,0.87 87.04,1.16 87.46,1.44 87.58,3.10 87.69,4.77 87.64,5.95 87.59,7.14 87.51,8.62 87.43,10.11 87.17,11.45 86.92,12.78 85.43,15.23 83.95,17.67 83.03,19.22 82.11,20.78 80.74,21.57 79.37,22.36 78.94,23.93 78.50,25.50 77.27,26.45 76.04,27.40 74.52,27.56 73.00,27.72 71.65,27.73 70.30,27.75 69.15,27.73 68.00,27.72 66.65,27.73 65.30,27.75 64.15,27.74 63.00,27.72 61.65,27.74 60.30,27.75 59.15,27.74 58.00,27.73 56.65,27.74 55.30,27.76 54.15,27.74 53.00,27.73 51.65,27.75 50.30,27.76 49.15,27.75 48.00,27.74 46.65,27.76 45.30,27.77 44.15,27.76 43.00,27.75 41.65,27.77 40.30,27.78 39.15,27.78 38.00,27.77 36.65,27.78 35.29,27.80 34.14,27.79 32.99,27.78 31.64,27.79 30.28,27.81 29.12,27.79 27.97,27.77 26.58,27.75 25.19,27.74 24.00,27.64 22.80,27.55 21.18,27.25 19.55,26.94 18.22,25.41 16.89,23.89 15.04,23.31 13.20,22.73 12.13,22.72 11.06,22.71 11.18,20.04 11.30,17.37 11.59,17.54 11.87,17.71 12.11,17.93 12.34,18.16 12.52,18.44 12.69,18.72 12.79,19.04 12.90,19.35 12.92,19.68 12.95,20.00 12.89,20.33 12.84,20.65 12.71,20.96 12.58,21.26 12.38,21.52 12.18,21.78 11.92,21.99 11.67,22.20 11.37,22.34 11.07,22.48 10.75,22.54 10.42,22.60 10.09,22.59 9.77,22.57 9.45,22.48 9.13,22.39 10.37,19.80 11.61,17.20 11.90,17.37 12.18,17.54 12.42,17.77 12.66,18.00 12.83,18.28 13.01,18.56 13.11,18.87 13.21,19.19 13.24,19.52 13.26,19.85 13.21,20.18 13.15,20.50 13.02,20.81 12.89,21.11 12.69,21.37 12.49,21.64 12.23,21.85 11.98,22.05 11.68,22.19 11.38,22.33 11.05,22.40 10.73,22.46 10.40,22.45 10.06,22.43 9.75,22.34 9.43,22.25 8.45,22.04 7.47,21.84 5.91,20.07 4.36,18.30 3.29,17.12 2.23,15.93 1.14,14.82 0.06,13.71 -0.15,11.98 -0.37,10.24 -0.42,9.00 -0.47,7.76 -0.70,6.19 -0.94,4.62 -1.65,2.64 -2.35,0.67 -2.40,0.38 -2.45,0.08 -2.42,-0.20 -2.40,-0.49 -2.30,-0.77 -2.21,-1.06 -2.05,-1.30 -1.89,-1.55 -1.68,-1.76 -1.46,-1.96 -1.21,-2.11 -0.95,-2.26 -0.66,-2.34 -0.38,-2.42 -0.08,-2.43 0.20,-2.44 0.49,-2.38 0.78,-2.32 1.05,-2.19 1.31,-2.06 1.54,-1.88 1.77,-1.69 1.95,-1.45 2.12,-1.21 2.24,-0.94 2.35,-0.67 2.35,-0.67 L 2.35,-0.67 Z"></path></g><g transform="translate(379 360) rotate(0 -1 3.5)" stroke="none"><path fill="#2f9e44" d="M 2.18,0 Q 2.18,0 2.07,2.10 1.95,4.21 1.48,4.97 1.01,5.73 0.98,5.99 0.95,6.25 0.86,6.49 0.76,6.74 0.62,6.95 0.47,7.17 0.27,7.34 0.08,7.51 -0.15,7.64 -0.38,7.76 -0.63,7.82 -0.88,7.88 -1.15,7.88 -1.41,7.88 -1.66,7.82 -1.91,7.76 -2.14,7.64 -2.38,7.51 -2.57,7.34 -2.77,7.17 -2.92,6.95 -3.06,6.74 -3.16,6.49 -3.25,6.25 -3.28,5.99 -3.31,5.73 -2.89,3.88 -2.47,2.03 -2.36,1.73 -2.24,1.42 -2.03,1.16 -1.83,0.91 -1.55,0.74 -1.27,0.56 -0.95,0.48 -0.63,0.41 -0.30,0.44 0.01,0.47 0.31,0.60 0.61,0.73 0.86,0.95 1.10,1.17 1.26,1.46 1.42,1.75 1.48,2.07 1.54,2.39 1.49,2.72 1.44,3.04 1.29,3.34 1.14,3.63 0.91,3.86 0.68,4.09 0.38,4.23 0.09,4.38 -0.23,4.42 -0.56,4.46 -0.88,4.40 -1.20,4.33 -1.48,4.17 -1.77,4.00 -1.99,3.76 -2.20,3.51 -2.33,3.21 -2.46,2.91 -2.48,2.58 -2.51,2.25 -2.42,1.93 -2.34,1.61 -2.16,1.34 -1.98,1.06 -1.73,0.86 -1.47,0.66 -1.16,0.55 -0.85,0.44 -0.52,0.43 -0.19,0.42 0.11,0.52 0.42,0.62 0.69,0.82 0.95,1.01 1.14,1.28 1.33,1.55 1.43,1.86 1.52,2.18 1.51,2.50 1.50,2.83 1.50,2.83 1.50,2.83 1.25,4.28 1.01,5.73 0.98,5.99 0.95,6.25 0.86,6.49 0.76,6.74 0.62,6.95 0.47,7.17 0.27,7.34 0.08,7.51 -0.15,7.64 -0.38,7.76 -0.63,7.82 -0.88,7.88 -1.14,7.88 -1.41,7.88 -1.66,7.82 -1.91,7.76 -2.14,7.64 -2.38,7.51 -2.57,7.34 -2.77,7.17 -2.92,6.95 -3.06,6.74 -3.16,6.49 -3.25,6.25 -3.28,5.99 -3.31,5.73 -2.63,4.78 -1.95,3.83 -2.07,1.91 -2.18,0 -2.15,-0.26 -2.12,-0.52 -2.02,-0.76 -1.93,-1.01 -1.78,-1.23 -1.63,-1.44 -1.43,-1.62 -1.24,-1.79 -1.00,-1.92 -0.77,-2.04 -0.51,-2.10 -0.26,-2.17 0.00,-2.17 0.26,-2.17 0.51,-2.10 0.77,-2.04 1.00,-1.92 1.24,-1.79 1.43,-1.62 1.63,-1.44 1.78,-1.23 1.93,-1.01 2.02,-0.76 2.12,-0.52 2.15,-0.26 2.18,0.00 2.18,0.00 L 2.18,0 Z"></path></g><g transform="translate(162 118) rotate(0 84.33992004394531 12.5)"><text x="0" y="0" font-family="Virgil, Segoe UI Emoji" font-size="20px" fill="#1971c2" text-anchor="start" style="white-space: pre;" direction="ltr" dominant-baseline="text-before-edge">Energie thermique</text></g><g transform="translate(442 170) rotate(0 -37.5 -25)" stroke="none"><path fill="#1971c2" d="M -2.10,0 Q -2.10,0 -2.03,-2.01 -1.95,-4.02 -1.86,-6.31 -1.78,-8.61 -1.78,-10.44 -1.79,-12.28 -1.86,-13.64 -1.93,-14.99 -1.88,-16.99 -1.82,-18.99 -2.35,-20.43 -2.89,-21.87 -3.23,-23.29 -3.58,-24.70 -3.71,-26.13 -3.84,-27.56 -5.19,-29.96 -6.54,-32.35 -7.18,-33.21 -7.82,-34.06 -8.84,-35.29 -9.87,-36.53 -11.46,-37.92 -13.06,-39.32 -14.46,-39.28 -15.85,-39.24 -17.16,-39.33 -18.48,-39.42 -20.16,-40.53 -21.85,-41.63 -23.76,-41.91 -25.66,-42.18 -26.95,-42.25 -28.23,-42.32 -29.87,-43.05 -31.52,-43.79 -33.40,-45.07 -35.28,-46.36 -36.70,-46.76 -38.11,-47.16 -39.28,-47.30 -40.44,-47.43 -41.75,-47.49 -43.05,-47.54 -44.19,-47.53 -45.33,-47.53 -47.24,-47.63 -49.15,-47.74 -50.83,-47.77 -52.51,-47.79 -53.80,-47.75 -55.09,-47.71 -56.50,-47.69 -57.91,-47.67 -59.08,-47.63 -60.26,-47.59 -62.20,-47.68 -64.13,-47.77 -65.82,-47.79 -67.50,-47.80 -68.79,-47.76 -70.09,-47.72 -72.10,-47.66 -74.11,-47.60 -74.49,-47.66 -74.87,-47.73 -75.22,-47.91 -75.56,-48.09 -75.82,-48.37 -76.09,-48.65 -76.25,-49.00 -76.42,-49.35 -76.46,-49.74 -76.50,-50.12 -76.42,-50.50 -76.33,-50.88 -76.13,-51.21 -75.93,-51.55 -75.64,-51.80 -75.34,-52.05 -74.98,-52.19 -74.62,-52.33 -74.24,-52.35 -73.85,-52.38 -73.48,-52.27 -73.10,-52.17 -72.78,-51.95 -72.46,-51.73 -72.23,-51.42 -71.99,-51.12 -71.87,-50.75 -71.75,-50.38 -71.75,-49.99 -71.75,-49.61 -71.87,-49.24 -71.99,-48.87 -72.23,-48.56 -72.46,-48.26 -72.78,-48.04 -73.10,-47.82 -73.48,-47.72 -73.85,-47.61 -74.24,-47.64 -74.62,-47.66 -74.98,-47.80 -75.34,-47.94 -75.64,-48.19 -75.93,-48.45 -76.13,-48.78 -76.33,-49.11 -76.42,-49.49 -76.50,-49.87 -76.46,-50.25 -76.42,-50.64 -76.25,-50.99 -76.09,-51.34 -75.82,-51.62 -75.56,-51.90 -75.21,-52.08 -74.87,-52.26 -74.49,-52.33 -74.11,-52.39 -74.11,-52.39 -74.11,-52.39 -72.10,-52.33 -70.09,-52.27 -68.79,-52.23 -67.50,-52.19 -65.82,-52.20 -64.13,-52.22 -62.19,-52.31 -60.26,-52.40 -59.08,-52.36 -57.91,-52.32 -56.49,-52.29 -55.08,-52.27 -53.79,-52.23 -52.49,-52.18 -50.80,-52.19 -49.11,-52.20 -47.15,-52.28 -45.18,-52.36 -43.98,-52.28 -42.77,-52.20 -41.25,-52.08 -39.73,-51.96 -38.32,-51.69 -36.91,-51.42 -34.96,-50.87 -33.02,-50.32 -30.39,-48.90 -27.77,-47.47 -26.36,-47.40 -24.94,-47.34 -23.63,-47.12 -22.32,-46.90 -20.00,-45.64 -17.68,-44.38 -16.40,-44.35 -15.12,-44.31 -13.89,-44.08 -12.66,-43.84 -10.92,-42.43 -9.18,-41.02 -7.91,-40.24 -6.65,-39.46 -5.32,-37.99 -3.99,-36.52 -3.15,-35.06 -2.31,-33.61 -2.12,-32.56 -1.93,-31.51 -0.89,-29.87 0.15,-28.24 0.23,-26.83 0.30,-25.43 0.45,-24.23 0.59,-23.04 1.20,-21.04 1.82,-19.05 1.88,-17.02 1.93,-14.99 1.86,-13.64 1.79,-12.28 1.78,-10.44 1.78,-8.61 1.86,-6.31 1.95,-4.02 2.03,-2.01 2.10,0 2.07,0.25 2.04,0.50 1.95,0.74 1.86,0.97 1.72,1.18 1.57,1.39 1.38,1.56 1.19,1.73 0.97,1.85 0.74,1.96 0.50,2.02 0.25,2.09 -0.00,2.09 -0.25,2.09 -0.50,2.02 -0.74,1.96 -0.97,1.85 -1.19,1.73 -1.38,1.56 -1.57,1.39 -1.72,1.18 -1.86,0.97 -1.95,0.74 -2.04,0.50 -2.07,0.25 -2.10,-0.00 -2.10,-0.00 L -2.10,0 Z"></path></g><g transform="translate(367 120) rotate(0 10 -2.5)" stroke="none"><path fill="#1971c2" d="M 0,-2.35 Q 0,-2.35 2.83,-2.20 5.66,-2.06 7.47,-2.73 9.28,-3.40 11.65,-5.02 14.01,-6.64 17.52,-5.94 21.03,-5.23 21.30,-4.95 21.57,-4.67 21.74,-4.31 21.90,-3.96 21.94,-3.57 21.99,-3.18 21.90,-2.80 21.82,-2.42 21.62,-2.09 21.42,-1.75 21.12,-1.50 20.83,-1.25 20.46,-1.10 20.10,-0.96 19.71,-0.93 19.32,-0.91 18.95,-1.02 18.57,-1.12 18.25,-1.34 17.93,-1.56 17.69,-1.87 17.45,-2.18 17.33,-2.55 17.20,-2.91 17.20,-3.30 17.20,-3.69 17.32,-4.06 17.45,-4.43 17.68,-4.75 17.92,-5.06 18.24,-5.28 18.56,-5.50 18.94,-5.60 19.31,-5.71 19.70,-5.69 20.09,-5.66 20.46,-5.52 20.82,-5.38 21.12,-5.13 21.41,-4.87 21.61,-4.54 21.82,-4.21 21.90,-3.83 21.99,-3.45 21.94,-3.06 21.90,-2.67 21.74,-2.32 21.58,-1.96 21.31,-1.68 21.04,-1.39 20.70,-1.21 20.35,-1.03 19.97,-0.96 19.58,-0.90 19.20,-0.96 18.81,-1.02 18.47,-1.21 18.12,-1.39 18.12,-1.39 18.12,-1.39 16.63,-1.76 15.14,-2.13 14.02,-2.10 12.90,-2.06 12.19,-0.97 11.47,0.12 10.29,0.47 9.10,0.82 7.47,1.44 5.83,2.06 2.91,2.20 0,2.35 -0.28,2.31 -0.56,2.28 -0.82,2.18 -1.09,2.08 -1.32,1.92 -1.56,1.76 -1.74,1.54 -1.93,1.33 -2.06,1.08 -2.20,0.83 -2.26,0.55 -2.33,0.28 -2.33,-0.00 -2.33,-0.28 -2.26,-0.55 -2.20,-0.83 -2.06,-1.08 -1.93,-1.33 -1.74,-1.54 -1.56,-1.76 -1.32,-1.92 -1.09,-2.08 -0.82,-2.18 -0.56,-2.28 -0.28,-2.31 0.00,-2.35 0.00,-2.35 L 0,-2.35 Z"></path></g><g transform="translate(367 120) rotate(0 6 3.5)" stroke="none"><path fill="#1971c2" d="M 0.89,-2.23 Q 0.89,-2.23 2.35,-1.63 3.81,-1.03 5.29,0.28 6.77,1.60 7.85,1.91 8.94,2.21 10.66,3.36 12.39,4.52 12.73,4.72 13.07,4.93 13.32,5.23 13.58,5.53 13.72,5.90 13.87,6.27 13.89,6.66 13.91,7.06 13.80,7.44 13.70,7.82 13.48,8.15 13.25,8.48 12.94,8.71 12.62,8.95 12.25,9.08 11.87,9.20 11.47,9.20 11.08,9.20 10.70,9.08 10.33,8.95 10.01,8.71 9.70,8.47 9.48,8.14 9.25,7.81 9.15,7.43 9.04,7.05 9.07,6.65 9.09,6.26 9.24,5.89 9.38,5.52 9.64,5.22 9.90,4.92 10.24,4.72 10.58,4.51 10.96,4.43 11.35,4.34 11.75,4.39 12.14,4.43 12.50,4.60 12.86,4.76 13.14,5.04 13.43,5.31 13.62,5.66 13.80,6.01 13.86,6.40 13.93,6.79 13.86,7.18 13.80,7.57 13.61,7.92 13.42,8.27 13.14,8.55 12.85,8.82 12.49,8.98 12.13,9.15 11.73,9.19 11.34,9.23 10.95,9.15 10.57,9.06 10.57,9.06 10.57,9.06 8.79,7.73 7.01,6.39 5.36,5.75 3.72,5.11 2.83,4.22 1.93,3.33 0.52,2.78 -0.89,2.23 -1.14,2.09 -1.40,1.95 -1.61,1.75 -1.83,1.56 -1.99,1.32 -2.15,1.08 -2.24,0.80 -2.34,0.53 -2.37,0.24 -2.40,-0.04 -2.36,-0.33 -2.32,-0.61 -2.21,-0.88 -2.11,-1.15 -1.94,-1.39 -1.77,-1.62 -1.55,-1.81 -1.33,-2.00 -1.07,-2.13 -0.81,-2.26 -0.52,-2.33 -0.24,-2.39 0.04,-2.38 0.33,-2.38 0.61,-2.30 0.89,-2.23 0.89,-2.23 L 0.89,-2.23 Z"></path></g><g transform="translate(477 160) rotate(0 -41 -40)" stroke="none"><path fill="#1971c2" d="M -1.98,0 Q -1.98,0 -1.92,-2.01 -1.86,-4.02 -1.79,-6.31 -1.71,-8.61 -1.73,-10.44 -1.74,-12.28 -1.82,-13.64 -1.89,-14.99 -1.84,-17.00 -1.79,-19.02 -1.82,-20.74 -1.84,-22.45 -1.77,-24.62 -1.70,-26.79 -1.77,-28.29 -1.83,-29.78 -1.89,-31.28 -1.94,-32.78 -2.01,-33.96 -2.07,-35.14 -2.60,-36.14 -3.13,-37.14 -3.49,-38.48 -3.84,-39.81 -4.65,-42.51 -5.47,-45.21 -5.89,-47.07 -6.31,-48.93 -6.98,-50.35 -7.65,-51.76 -8.67,-52.78 -9.70,-53.80 -10.75,-55.93 -11.80,-58.06 -13.34,-58.63 -14.87,-59.20 -16.42,-59.49 -17.97,-59.77 -19.61,-60.91 -21.25,-62.04 -22.62,-63.00 -23.99,-63.97 -26.65,-64.38 -29.31,-64.80 -30.95,-64.86 -32.59,-64.92 -33.87,-64.89 -35.14,-64.86 -37.13,-64.94 -39.12,-65.02 -41.68,-66.03 -44.25,-67.04 -46.47,-67.43 -48.69,-67.81 -51.07,-68.01 -53.46,-68.20 -55.34,-68.25 -57.23,-68.30 -59.46,-68.37 -61.69,-68.43 -64.08,-68.47 -66.46,-68.51 -68.06,-68.44 -69.65,-68.36 -71.18,-68.29 -72.72,-68.23 -73.95,-68.14 -75.18,-68.06 -76.56,-68.00 -77.95,-67.94 -79.40,-68.01 -80.85,-68.08 -81.06,-68.45 -81.26,-68.83 -81.54,-68.86 -81.82,-68.89 -82.08,-68.99 -82.34,-69.09 -82.57,-69.25 -82.80,-69.41 -82.99,-69.62 -83.17,-69.83 -83.30,-70.08 -83.43,-70.32 -83.50,-70.59 -83.57,-70.87 -83.57,-71.15 -83.56,-71.42 -83.50,-71.70 -83.43,-71.97 -83.30,-72.21 -83.17,-72.46 -82.99,-72.67 -82.80,-72.88 -82.57,-73.04 -82.34,-73.20 -82.08,-73.30 -81.82,-73.40 -81.54,-73.43 -81.26,-73.46 -79.71,-75.44 -78.16,-77.42 -76.79,-78.11 -75.43,-78.79 -74.20,-78.81 -72.97,-78.83 -72.07,-80.04 -71.16,-81.24 -70.84,-81.25 -70.52,-81.25 -70.21,-81.18 -69.89,-81.11 -69.61,-80.96 -69.32,-80.82 -69.08,-80.61 -68.84,-80.40 -68.65,-80.14 -68.47,-79.88 -68.35,-79.58 -68.23,-79.28 -68.19,-78.96 -68.15,-78.65 -68.18,-78.33 -68.22,-78.01 -68.33,-77.71 -68.44,-77.41 -68.61,-77.14 -68.79,-76.88 -69.03,-76.66 -69.27,-76.45 -69.55,-76.29 -69.83,-76.14 -70.14,-76.06 -70.45,-75.98 -69.43,-77.89 -68.40,-79.80 -67.92,-78.23 -67.43,-76.67 -67.60,-75.09 -67.77,-73.52 -68.49,-72.62 -69.22,-71.72 -70.80,-69.87 -72.39,-68.02 -73.36,-67.82 -74.33,-67.62 -74.66,-67.52 -75.00,-67.41 -75.35,-67.39 -75.70,-67.36 -76.04,-67.42 -76.39,-67.48 -76.71,-67.63 -77.03,-67.77 -77.31,-67.98 -77.59,-68.20 -77.80,-68.47 -78.02,-68.75 -78.17,-69.07 -78.32,-69.39 -78.38,-69.73 -78.45,-70.08 -78.43,-70.43 -78.41,-70.78 -78.31,-71.11 -78.20,-71.45 -78.02,-71.75 -77.85,-72.05 -77.60,-72.30 -77.35,-72.55 -77.05,-72.74 -76.75,-72.92 -74.97,-72.30 -73.19,-71.68 -72.67,-70.46 -72.14,-69.24 -71.84,-67.97 -71.53,-66.71 -69.62,-65.13 -67.70,-63.56 -65.94,-63.24 -64.18,-62.92 -62.42,-62.85 -60.66,-62.78 -60.23,-62.68 -59.80,-62.58 -59.42,-62.35 -59.04,-62.11 -58.76,-61.77 -58.48,-61.43 -58.32,-61.02 -58.16,-60.61 -58.14,-60.16 -58.13,-59.72 -58.25,-59.30 -58.37,-58.87 -58.63,-58.51 -58.88,-58.15 -59.23,-57.88 -59.59,-57.62 -60.01,-57.48 -60.43,-57.35 -60.87,-57.35 -61.32,-57.36 -61.73,-57.51 -62.15,-57.65 -62.50,-57.92 -62.85,-58.20 -63.09,-58.57 -63.33,-58.94 -63.45,-59.36 -63.56,-59.79 -63.53,-60.23 -63.50,-60.67 -63.33,-61.08 -63.16,-61.49 -62.87,-61.82 -62.58,-62.16 -62.20,-62.38 -61.82,-62.60 -61.39,-62.69 -60.95,-62.78 -60.51,-62.73 -60.07,-62.68 -59.68,-62.48 -59.28,-62.29 -58.96,-61.99 -58.64,-61.68 -58.44,-61.28 -58.24,-60.89 -58.17,-60.45 -58.11,-60.02 -58.18,-59.58 -58.26,-59.15 -58.47,-58.76 -58.68,-58.37 -59.01,-58.07 -59.33,-57.77 -59.74,-57.59 -60.14,-57.41 -60.58,-57.37 -61.02,-57.32 -61.02,-57.32 -61.02,-57.32 -63.09,-57.51 -65.15,-57.70 -66.50,-57.99 -67.85,-58.29 -69.62,-59.09 -71.39,-59.89 -72.27,-60.84 -73.14,-61.79 -74.69,-63.04 -76.24,-64.30 -76.75,-66.42 -77.26,-68.55 -75.79,-68.08 -74.33,-67.62 -74.66,-67.52 -75.00,-67.41 -75.35,-67.39 -75.70,-67.36 -76.04,-67.42 -76.39,-67.48 -76.71,-67.63 -77.03,-67.77 -77.31,-67.98 -77.59,-68.20 -77.80,-68.47 -78.02,-68.75 -78.17,-69.07 -78.32,-69.39 -78.38,-69.73 -78.45,-70.08 -78.43,-70.43 -78.41,-70.78 -78.31,-71.11 -78.20,-71.45 -78.03,-71.75 -77.85,-72.05 -77.60,-72.30 -77.35,-72.55 -77.05,-72.74 -76.75,-72.92 -75.28,-72.93 -73.81,-72.94 -73.04,-74.83 -72.28,-76.72 -71.72,-78.98 -71.16,-81.24 -70.84,-81.25 -70.52,-81.25 -70.21,-81.18 -69.89,-81.11 -69.61,-80.96 -69.32,-80.82 -69.08,-80.61 -68.84,-80.40 -68.65,-80.14 -68.47,-79.88 -68.35,-79.58 -68.23,-79.28 -68.19,-78.96 -68.15,-78.65 -68.18,-78.33 -68.22,-78.01 -68.33,-77.71 -68.44,-77.41 -68.61,-77.14 -68.79,-76.88 -69.03,-76.66 -69.27,-76.45 -69.55,-76.29 -69.83,-76.14 -70.14,-76.06 -70.45,-75.98 -70.63,-75.31 -70.82,-74.65 -72.16,-74.32 -73.51,-73.99 -74.83,-73.36 -76.15,-72.73 -76.91,-71.53 -77.67,-70.33 -79.47,-69.58 -81.26,-68.83 -81.54,-68.86 -81.82,-68.89 -82.08,-68.99 -82.34,-69.09 -82.57,-69.25 -82.80,-69.41 -82.99,-69.62 -83.17,-69.83 -83.30,-70.08 -83.43,-70.32 -83.50,-70.59 -83.57,-70.87 -83.57,-71.15 -83.56,-71.42 -83.50,-71.70 -83.43,-71.97 -83.30,-72.21 -83.17,-72.46 -82.99,-72.67 -82.80,-72.88 -82.57,-73.04 -82.34,-73.20 -82.08,-73.30 -81.82,-73.40 -81.54,-73.43 -81.26,-73.46 -79.61,-72.75 -77.95,-72.05 -76.56,-71.99 -75.18,-71.93 -73.95,-71.85 -72.72,-71.76 -71.18,-71.69 -69.64,-71.61 -68.04,-71.53 -66.45,-71.44 -64.05,-71.46 -61.65,-71.47 -59.39,-71.48 -57.12,-71.49 -55.19,-71.41 -53.26,-71.32 -50.72,-71.21 -48.19,-71.09 -45.59,-70.73 -43.00,-70.38 -41.00,-69.65 -39.00,-68.92 -37.02,-68.98 -35.03,-69.04 -33.72,-68.94 -32.41,-68.84 -30.68,-68.75 -28.95,-68.65 -26.77,-68.46 -24.58,-68.28 -23.21,-67.66 -21.83,-67.05 -20.39,-66.00 -18.95,-64.95 -18.02,-64.06 -17.08,-63.16 -15.30,-62.74 -13.52,-62.31 -11.26,-61.20 -9.00,-60.10 -7.90,-58.28 -6.80,-56.47 -5.46,-54.97 -4.12,-53.47 -3.30,-51.66 -2.47,-49.85 -2.07,-48.18 -1.67,-46.52 -0.41,-42.65 0.83,-38.78 1.45,-37.02 2.07,-35.27 2.01,-34.02 1.94,-32.78 1.89,-31.28 1.83,-29.78 1.77,-28.29 1.70,-26.79 1.77,-24.62 1.84,-22.45 1.82,-20.74 1.79,-19.02 1.84,-17.00 1.89,-14.99 1.82,-13.64 1.74,-12.28 1.73,-10.44 1.71,-8.61 1.79,-6.31 1.86,-4.02 1.92,-2.01 1.98,0 1.96,0.23 1.93,0.47 1.84,0.70 1.76,0.92 1.62,1.12 1.48,1.31 1.30,1.47 1.13,1.63 0.91,1.74 0.70,1.86 0.47,1.91 0.23,1.97 -0.00,1.97 -0.23,1.97 -0.47,1.91 -0.70,1.86 -0.91,1.74 -1.13,1.63 -1.30,1.47 -1.48,1.31 -1.62,1.12 -1.76,0.92 -1.84,0.70 -1.93,0.47 -1.96,0.23 -1.98,-0.00 -1.98,-0.00 L -1.98,0 Z"></path></g></svg>