<svg version="1.1" xmlns="http://www.w3.org/2000/svg" viewBox="0 0 799.7998352050781 736" width="799.7998352050781" height="736">
  <!-- svg-source:excalidraw -->
  
  <defs>
    <style class="style-fonts">
      @font-face {
        font-family: "Virgil";
        src: url("https://pomdtr.vscode-unpkg.net/pomdtr/excalidraw-editor/3.7.1/extension/public//dist/excalidraw-assets/Virgil.woff2");
      }
      @font-face {
        font-family: "Cascadia";
        src: url("https://pomdtr.vscode-unpkg.net/pomdtr/excalidraw-editor/3.7.1/extension/public//dist/excalidraw-assets/Cascadia.woff2");
      }
      @font-face {
        font-family: "Assistant";
        src: url("https://pomdtr.vscode-unpkg.net/pomdtr/excalidraw-editor/3.7.1/extension/public//dist/excalidraw-assets/Assistant-Regular.woff2");
      }
    </style>
    
  </defs>
  <rect x="0" y="0" width="799.7998352050781" height="736" fill="#ffffff"></rect><g stroke-linecap="round" transform="translate(342 398) rotate(0 32.5 43.5)"><path d="M43.62 2.85 C49.39 5.39, 56.51 12.76, 60.11 19.98 C63.7 27.2, 65.71 37.66, 65.2 46.19 C64.69 54.72, 61.01 64.7, 57.05 71.15 C53.08 77.61, 47.52 82.66, 41.41 84.93 C35.31 87.2, 26.34 87.87, 20.4 84.79 C14.46 81.72, 9.19 73.76, 5.77 66.51 C2.34 59.25, -0.37 49.62, -0.16 41.25 C0.06 32.88, 2.86 23.11, 7.07 16.3 C11.28 9.49, 18.59 2.32, 25.09 0.41 C31.6 -1.51, 42.29 3.58, 46.11 4.81 C49.92 6.03, 48.18 7.04, 48 7.74 M48.23 3.16 C53.63 6.28, 57.81 17.04, 60.57 24.7 C63.33 32.36, 65.66 40.79, 64.8 49.11 C63.94 57.43, 59.8 68.56, 55.39 74.62 C50.99 80.67, 44.8 84.2, 38.37 85.44 C31.94 86.67, 22.37 85.5, 16.83 82.05 C11.29 78.59, 7.81 71.95, 5.12 64.72 C2.43 57.48, 0.24 47.11, 0.7 38.66 C1.16 30.22, 3.48 20.19, 7.86 14.05 C12.24 7.9, 20.69 3.5, 26.98 1.81 C33.27 0.11, 42.41 3.33, 45.6 3.87 C48.8 4.42, 45.96 4.57, 46.15 5.08" stroke="none" stroke-width="0" fill="#e9ecef"></path><path d="M25.75 0.79 C31.73 -1.74, 40.65 -0.35, 46.31 2.91 C51.98 6.17, 56.67 12.96, 59.73 20.36 C62.79 27.75, 65.23 38.52, 64.67 47.27 C64.11 56.03, 60.63 66.35, 56.37 72.91 C52.12 79.47, 45.37 85, 39.12 86.63 C32.87 88.26, 24.64 86.23, 18.89 82.71 C13.14 79.19, 7.91 72.58, 4.63 65.51 C1.34 58.45, -1.53 48.92, -0.83 40.32 C-0.12 31.72, 3.59 20.49, 8.84 13.93 C14.09 7.37, 25.95 3.2, 30.67 0.96 C35.39 -1.29, 36.93 -0.17, 37.15 0.44 M37.95 -0.15 C43.91 1.28, 52.55 8.84, 56.83 15.32 C61.11 21.79, 62.97 30.56, 63.64 38.68 C64.31 46.81, 63.95 56.43, 60.85 64.05 C57.75 71.67, 50.83 80.72, 45.07 84.4 C39.3 88.08, 32.21 88.12, 26.24 86.12 C20.28 84.11, 13.84 78.69, 9.28 72.38 C4.71 66.07, -0.38 56.74, -1.14 48.26 C-1.89 39.78, 1.5 28.77, 4.75 21.5 C7.99 14.23, 12.61 7.91, 18.31 4.65 C24.01 1.38, 35.42 2.24, 38.96 1.93 C42.51 1.62, 39.63 2.39, 39.55 2.79" stroke="#343a40" stroke-width="2" fill="none"></path></g><g stroke-linecap="round" transform="translate(265 99) rotate(0 110 147)"><path d="M68.22 10.88 C78.04 2.94, 91.9 0.23, 103.92 -0.74 C115.94 -1.71, 128.92 0.61, 140.33 5.06 C151.75 9.5, 162.66 16.72, 172.44 25.92 C182.22 35.11, 191.95 47.12, 199.02 60.22 C206.1 73.33, 211.23 89.37, 214.88 104.53 C218.53 119.68, 221.37 135.26, 220.91 151.15 C220.45 167.04, 216.35 184.78, 212.12 199.86 C207.88 214.94, 202.9 229.55, 195.51 241.64 C188.12 253.73, 178.22 264.22, 167.8 272.4 C157.38 280.58, 144.65 287.23, 133.01 290.71 C121.37 294.2, 109.85 295.01, 97.97 293.31 C86.09 291.61, 72.57 287.5, 61.73 280.53 C50.89 273.55, 41.35 262.71, 32.93 251.49 C24.52 240.26, 16.61 227.21, 11.26 213.16 C5.92 199.11, 2.42 182.95, 0.85 167.21 C-0.71 151.47, -0.35 134.44, 1.89 118.71 C4.13 102.98, 8.35 86.71, 14.28 72.82 C20.21 58.93, 27.75 45.94, 37.49 35.37 C47.23 24.8, 66.02 13.67, 72.72 9.41 C79.42 5.14, 77.03 7.76, 77.66 9.76 M109.04 0.24 C120.28 -2.87, 132.15 0.66, 143.32 5.52 C154.5 10.39, 166.53 19.8, 176.1 29.41 C185.67 39.02, 193.93 50.23, 200.73 63.18 C207.52 76.13, 213.56 91.7, 216.88 107.12 C220.2 122.54, 221.38 139.59, 220.66 155.7 C219.94 171.81, 217.12 189.07, 212.54 203.77 C207.97 218.46, 201.1 231.91, 193.22 243.86 C185.33 255.8, 175.5 267.73, 165.24 275.45 C154.98 283.17, 143.46 287.27, 131.63 290.18 C119.81 293.09, 106.5 295, 94.29 292.91 C82.09 290.82, 68.99 285.09, 58.41 277.65 C47.83 270.21, 38.99 259.69, 30.81 248.26 C22.63 236.83, 14.58 223.58, 9.31 209.05 C4.04 194.53, 0.29 177.02, -0.81 161.11 C-1.91 145.2, -0.39 129.13, 2.72 113.58 C5.83 98.04, 11.63 81.5, 17.83 67.83 C24.03 54.16, 30.76 41.36, 39.91 31.58 C49.07 21.8, 61.65 14.29, 72.78 9.13 C83.91 3.97, 100.7 1.56, 106.71 0.62 C112.72 -0.31, 108.37 1.14, 108.82 3.5" stroke="none" stroke-width="0" fill="#ffec99"></path><path d="M137.57 5.77 C148.87 7.23, 161 15.7, 171.02 24.42 C181.03 33.14, 190.55 45.38, 197.68 58.1 C204.81 70.82, 210.23 85.65, 213.81 100.73 C217.38 115.82, 219.29 132.73, 219.12 148.62 C218.96 164.5, 216.76 180.97, 212.82 196.07 C208.88 211.17, 202.82 226.61, 195.47 239.22 C188.11 251.84, 178.8 263.19, 168.72 271.74 C158.63 280.28, 146.27 286.93, 134.93 290.5 C123.59 294.08, 112.48 294.66, 100.68 293.2 C88.89 291.73, 75.18 288.34, 64.15 281.7 C53.13 275.06, 42.99 264.31, 34.54 253.34 C26.09 242.37, 19.15 229.7, 13.45 215.89 C7.76 202.09, 2.25 186.42, 0.37 170.5 C-1.5 154.58, 0.11 136.22, 2.21 120.38 C4.32 104.54, 7.42 89.36, 12.98 75.47 C18.55 61.59, 26.79 47.57, 35.61 37.08 C44.43 26.58, 54.74 18.71, 65.91 12.49 C77.09 6.27, 90.36 0.96, 102.65 -0.26 C114.94 -1.47, 133.33 3.59, 139.64 5.22 C145.95 6.84, 140.99 7.1, 140.53 9.5 M159.26 16.02 C170.48 20.36, 181.12 31.84, 189.25 43.03 C197.37 54.23, 202.97 68.83, 208.03 83.2 C213.08 97.57, 217.9 113.27, 219.58 129.25 C221.27 145.22, 220.56 163.27, 218.13 179.05 C215.7 194.83, 211.12 210.28, 205.02 223.92 C198.91 237.55, 190.6 250.87, 181.48 260.86 C172.36 270.86, 161.5 278.51, 150.29 283.87 C139.08 289.23, 126.35 292.25, 114.23 293.02 C102.1 293.8, 88.69 292.78, 77.53 288.53 C66.36 284.29, 56.9 276.84, 47.23 267.56 C37.57 258.27, 26.54 245.9, 19.54 232.85 C12.54 219.79, 8.29 204.72, 5.22 189.24 C2.15 173.75, 0.86 156.18, 1.09 139.93 C1.33 123.68, 2.53 106.52, 6.62 91.73 C10.71 76.94, 17.86 63.01, 25.63 51.18 C33.39 39.34, 43.02 28.59, 53.19 20.72 C63.36 12.85, 74.73 7.09, 86.63 3.96 C98.53 0.84, 112.83 -0.01, 124.61 1.98 C136.39 3.96, 152.04 13.22, 157.32 15.85 C162.6 18.49, 157.14 15.86, 156.3 17.8" stroke="#f08c00" stroke-width="2" fill="none"></path></g><g transform="translate(330 385) rotate(0 46 -68.5)" stroke="none"><path fill="#f08c00" d="M -5.08,0 Q -5.08,0 -5.06,-2.87 -5.05,-5.75 -5.07,-8.40 -5.08,-11.06 -5.11,-13.63 -5.14,-16.20 -5.08,-19.30 -5.02,-22.41 -5.09,-24.59 -5.16,-26.77 -5.32,-29.77 -5.49,-32.78 -5.54,-37.17 -5.60,-41.57 -5.71,-44.65 -5.83,-47.74 -5.93,-50.35 -6.03,-52.95 -6.12,-55.47 -6.20,-57.99 -6.17,-62.30 -6.14,-66.60 -6.10,-69.02 -6.06,-71.43 -6.02,-73.89 -5.98,-76.35 -5.94,-78.84 -5.90,-81.32 -5.87,-83.82 -5.84,-86.31 -5.81,-88.81 -5.78,-91.30 -5.76,-93.80 -5.74,-96.30 -5.80,-100.07 -5.86,-103.84 -5.82,-108.38 -5.79,-112.91 -5.75,-115.51 -5.71,-118.10 -6.51,-122.25 -7.32,-126.41 -7.49,-129.24 -7.67,-132.06 -8.62,-135.11 -9.57,-138.16 -7.27,-137.17 -4.97,-136.17 -2.03,-135.05 0.91,-133.92 3.46,-132.91 6.02,-131.89 8.23,-131.84 10.45,-131.79 12.89,-131.79 15.32,-131.80 19.49,-131.70 23.66,-131.61 26.06,-131.54 28.45,-131.47 32.57,-131.42 36.69,-131.37 40.30,-131.36 43.91,-131.36 46.98,-131.39 50.05,-131.43 52.65,-131.48 55.25,-131.53 58.88,-131.51 62.50,-131.50 65.21,-131.54 67.91,-131.58 71.39,-131.56 74.86,-131.55 78.65,-131.52 82.43,-131.49 85.16,-131.53 87.90,-131.57 91.38,-131.56 94.86,-131.54 97.54,-131.58 100.22,-131.61 97.40,-130.82 94.57,-130.03 95.81,-127.33 97.04,-124.63 97.04,-122.16 97.04,-119.68 97.04,-117.19 97.04,-114.69 97.04,-112.19 97.04,-109.69 96.98,-106.33 96.93,-102.97 96.92,-100.07 96.91,-97.17 96.92,-94.60 96.92,-92.02 96.89,-88.94 96.86,-85.85 96.79,-83.59 96.72,-81.33 96.65,-78.94 96.57,-76.54 96.43,-71.85 96.29,-67.15 96.29,-63.57 96.29,-59.98 95.54,-57.44 94.78,-54.89 94.66,-52.71 94.54,-50.54 94.45,-46.77 94.36,-43.00 93.24,-39.66 92.12,-36.32 91.82,-33.97 91.51,-31.61 91.46,-28.71 91.40,-25.80 91.12,-22.13 90.83,-18.46 89.74,-16.56 88.65,-14.66 89.11,-13.83 89.58,-13.00 89.30,-11.97 89.03,-10.95 88.44,-10.07 87.85,-9.19 87.02,-8.54 86.18,-7.89 85.18,-7.54 84.17,-7.19 83.12,-7.19 82.06,-7.18 81.05,-7.51 80.04,-7.84 79.19,-8.47 78.34,-9.10 77.74,-9.98 77.14,-10.85 76.85,-11.87 76.56,-12.89 76.60,-13.94 76.65,-15.00 77.04,-15.99 77.42,-16.98 78.10,-17.79 78.78,-18.61 79.68,-19.16 80.59,-19.71 81.62,-19.95 82.65,-20.19 83.71,-20.08 84.76,-19.97 85.73,-19.54 86.69,-19.10 87.47,-18.38 88.24,-17.66 88.75,-16.72 89.25,-15.79 89.43,-14.75 89.61,-13.70 89.45,-12.66 89.28,-11.61 88.80,-10.67 88.31,-9.73 87.54,-8.99 86.78,-8.26 85.82,-7.81 84.86,-7.35 83.81,-7.23 82.76,-7.11 81.72,-7.33 80.69,-7.54 79.77,-8.08 78.86,-8.62 78.17,-9.42 77.48,-10.23 77.08,-11.21 76.68,-12.19 76.61,-13.25 76.54,-14.30 76.54,-14.30 76.54,-14.30 77.59,-18.42 78.63,-22.55 78.67,-26.35 78.72,-30.15 79.08,-33.45 79.44,-36.75 80.56,-40.06 81.69,-43.36 81.72,-47.29 81.75,-51.22 81.91,-53.63 82.06,-56.04 82.88,-58.17 83.70,-60.29 83.70,-63.72 83.70,-67.15 83.56,-71.85 83.42,-76.54 83.34,-78.94 83.27,-81.33 83.20,-83.59 83.13,-85.85 83.10,-88.94 83.07,-92.02 83.07,-94.60 83.08,-97.17 83.07,-100.07 83.06,-102.97 83.01,-106.33 82.95,-109.69 82.95,-112.19 82.96,-114.69 82.96,-117.20 82.96,-119.70 82.97,-122.21 82.97,-124.73 83.00,-127.31 83.04,-129.89 83.33,-133.03 83.63,-136.17 84.66,-138.29 85.69,-140.42 88.12,-141.87 90.55,-143.33 93.84,-143.60 97.13,-143.87 100.01,-143.67 102.90,-143.48 105.31,-142.74 107.72,-141.99 109.91,-138.81 112.10,-135.63 112.72,-131.37 113.34,-127.10 112.46,-124.64 111.58,-122.18 109.32,-120.65 107.06,-119.12 103.64,-118.75 100.22,-118.38 97.54,-118.41 94.86,-118.45 91.38,-118.43 87.90,-118.42 85.16,-118.46 82.43,-118.50 78.65,-118.47 74.86,-118.44 71.39,-118.43 67.91,-118.41 65.21,-118.45 62.50,-118.49 58.88,-118.48 55.25,-118.46 52.65,-118.51 50.05,-118.56 46.98,-118.60 43.91,-118.63 40.30,-118.63 36.69,-118.62 32.57,-118.57 28.45,-118.52 26.05,-118.46 23.66,-118.39 21.40,-118.33 19.14,-118.27 16.02,-118.26 12.91,-118.25 10.23,-118.33 7.55,-118.41 4.22,-118.78 0.88,-119.16 -1.98,-121.09 -4.86,-123.02 -6.92,-123.71 -8.99,-124.40 -12.71,-127.10 -16.43,-129.81 -17.21,-133.74 -18.00,-137.67 -12.54,-140.23 -7.08,-142.80 -4.94,-142.24 -2.80,-141.68 -0.91,-140.33 0.96,-138.98 2.47,-134.67 3.98,-130.35 4.17,-127.41 4.36,-124.47 5.03,-121.32 5.71,-118.16 5.75,-115.54 5.79,-112.91 5.82,-108.38 5.86,-103.84 5.80,-100.07 5.74,-96.30 5.76,-93.80 5.78,-91.30 5.81,-88.81 5.84,-86.31 5.87,-83.82 5.90,-81.32 5.94,-78.84 5.98,-76.35 6.02,-73.89 6.06,-71.43 6.10,-69.02 6.14,-66.60 6.17,-62.30 6.20,-57.99 6.12,-55.47 6.03,-52.95 5.93,-50.35 5.83,-47.74 5.71,-44.65 5.60,-41.57 5.54,-37.17 5.49,-32.78 5.32,-29.77 5.16,-26.77 5.09,-24.59 5.02,-22.41 5.08,-19.30 5.14,-16.20 5.11,-13.63 5.08,-11.06 5.07,-8.40 5.05,-5.75 5.06,-2.87 5.08,0 5.00,0.60 4.93,1.21 4.71,1.78 4.49,2.36 4.15,2.86 3.80,3.36 3.34,3.77 2.88,4.18 2.34,4.46 1.80,4.75 1.20,4.89 0.61,5.04 -0.00,5.04 -0.61,5.04 -1.20,4.89 -1.80,4.75 -2.34,4.46 -2.88,4.18 -3.34,3.77 -3.80,3.36 -4.15,2.86 -4.49,2.36 -4.71,1.78 -4.93,1.21 -5.00,0.60 -5.08,-0.00 -5.08,-0.00 L -5.08,0 Z"></path></g><g stroke-linecap="round" transform="translate(315 385) rotate(0 60 11)"><path d="M70.75 0.27 C81.17 0.51, 93.23 1.1, 101.2 2.56 C109.18 4.01, 115.85 6.98, 118.6 9 C121.35 11.02, 121.12 12.83, 117.69 14.67 C114.26 16.51, 106.46 18.91, 98.03 20.05 C89.6 21.18, 77.85 21.23, 67.1 21.46 C56.35 21.69, 43.18 22.23, 33.51 21.43 C23.85 20.63, 14.57 18.61, 9.12 16.69 C3.66 14.77, 0.45 11.84, 0.78 9.91 C1.12 7.98, 5.12 6.63, 11.11 5.11 C17.11 3.6, 25.13 1.71, 36.74 0.83 C48.36 -0.04, 72.18 -0.15, 80.82 -0.13 C89.46 -0.11, 89.03 0.75, 88.59 0.96 M75.23 0.77 C84.99 1.35, 95.74 3.04, 103.03 4.38 C110.31 5.72, 116.78 6.94, 118.92 8.8 C121.06 10.66, 120.01 13.7, 115.87 15.55 C111.74 17.4, 103.34 18.78, 94.11 19.91 C84.88 21.03, 71.33 22.02, 60.49 22.31 C49.64 22.59, 38.21 22.48, 29.03 21.6 C19.86 20.72, 10.03 18.99, 5.43 17.04 C0.83 15.09, -0.04 11.95, 1.44 9.91 C2.93 7.86, 7.74 6.14, 14.32 4.8 C20.91 3.46, 30.69 2.5, 40.95 1.85 C51.21 1.19, 70.1 1.2, 75.86 0.87 C81.63 0.55, 75.78 -0.14, 75.53 -0.13" stroke="none" stroke-width="0" fill="#e9ecef"></path><path d="M49.63 0.47 C59.63 -0.22, 73.56 -0.34, 83.42 0.43 C93.28 1.21, 102.71 3.38, 108.8 5.11 C114.89 6.83, 119.59 8.84, 119.97 10.81 C120.35 12.77, 116.66 15.33, 111.08 16.92 C105.5 18.5, 96.16 19.51, 86.49 20.31 C76.82 21.11, 63.67 21.78, 53.07 21.74 C42.46 21.71, 31.21 21.34, 22.84 20.1 C14.46 18.87, 6.45 16.19, 2.84 14.33 C-0.78 12.47, -1.74 10.77, 1.15 8.96 C4.05 7.15, 11.16 5.07, 20.2 3.45 C29.25 1.83, 48.48 -0.35, 55.43 -0.78 C62.38 -1.2, 61.68 0.73, 61.91 0.9 M71.79 -1.04 C82.15 -0.83, 95.47 1.44, 103.07 3.01 C110.67 4.58, 114.99 6.56, 117.36 8.38 C119.73 10.19, 120.57 11.78, 117.3 13.91 C114.02 16.05, 106.23 19.86, 97.71 21.18 C89.19 22.49, 77.17 21.86, 66.18 21.81 C55.18 21.75, 41.53 21.52, 31.74 20.84 C21.95 20.15, 12.61 19.36, 7.43 17.69 C2.26 16.03, 0.17 12.93, 0.69 10.84 C1.22 8.75, 4.24 6.78, 10.59 5.15 C16.94 3.53, 28.5 2.13, 38.81 1.08 C49.12 0.02, 67.03 -1.02, 72.47 -1.19 C77.9 -1.36, 71.6 -0.29, 71.4 0.05" stroke="#343a40" stroke-width="2" fill="none"></path></g><g stroke-linecap="round" transform="translate(317 400) rotate(0 60 9.5)"><path d="M54.74 -0.03 C64.83 -0.19, 78.34 0.64, 87.94 1.48 C97.54 2.32, 106.98 3.52, 112.34 5.01 C117.7 6.5, 120.73 8.77, 120.11 10.44 C119.49 12.11, 115 13.79, 108.62 15.05 C102.25 16.3, 91.99 17.38, 81.86 17.97 C71.72 18.56, 58.39 18.78, 47.81 18.58 C37.23 18.38, 26.09 17.88, 18.39 16.76 C10.69 15.63, 4.14 13.58, 1.6 11.81 C-0.93 10.04, -0.46 7.83, 3.17 6.15 C6.81 4.46, 14.52 2.68, 23.43 1.71 C32.34 0.74, 50.88 0.55, 56.63 0.31 C62.38 0.07, 57.86 0.22, 57.95 0.29 M70.45 0.41 C80.71 0.36, 92.83 0.79, 100.72 1.99 C108.61 3.18, 115.12 5.71, 117.79 7.58 C120.47 9.44, 120.1 11.65, 116.77 13.17 C113.44 14.69, 106.29 15.65, 97.81 16.7 C89.33 17.74, 76.66 19.16, 65.89 19.44 C55.13 19.73, 42.79 19.17, 33.21 18.42 C23.62 17.66, 13.84 16.42, 8.39 14.9 C2.94 13.39, 0.17 11.02, 0.52 9.3 C0.87 7.59, 4.33 6.02, 10.49 4.61 C16.65 3.2, 27.41 1.63, 37.5 0.83 C47.58 0.03, 65.54 -0.15, 71 -0.18 C76.46 -0.21, 70.47 0.47, 70.26 0.64" stroke="none" stroke-width="0" fill="#e9ecef"></path><path d="M62.03 -0.01 C72.4 -0.06, 85.48 0.39, 94.44 1.43 C103.39 2.46, 111.63 4.52, 115.74 6.19 C119.86 7.85, 121.04 9.82, 119.13 11.42 C117.23 13.03, 111.59 14.55, 104.31 15.8 C97.03 17.05, 85.96 18.43, 75.48 18.92 C65 19.41, 51.81 19.27, 41.43 18.74 C31.04 18.21, 20.05 17.06, 13.18 15.73 C6.31 14.4, 1.38 12.6, 0.22 10.78 C-0.94 8.96, 1.36 6.41, 6.22 4.79 C11.08 3.18, 19.75 1.92, 29.39 1.08 C39.02 0.25, 57.76 0, 64.02 -0.21 C70.27 -0.41, 66.89 -0.39, 66.91 -0.15 M72.91 0.49 C83.22 0.71, 95.33 0.91, 102.94 2.13 C110.55 3.35, 116.41 6.15, 118.56 7.82 C120.72 9.5, 119.62 10.52, 115.88 12.18 C112.15 13.83, 104.82 16.69, 96.14 17.75 C87.45 18.81, 74.75 18.54, 63.77 18.54 C52.79 18.53, 39.59 18.51, 30.26 17.73 C20.92 16.95, 12.86 15.3, 7.76 13.84 C2.66 12.37, -0.98 10.72, -0.36 8.95 C0.25 7.18, 4.79 4.5, 11.45 3.22 C18.1 1.94, 29.17 1.72, 39.56 1.27 C49.95 0.82, 68.19 0.75, 73.77 0.53 C79.34 0.31, 73.24 -0.04, 73.02 -0.05" stroke="#343a40" stroke-width="2" fill="none"></path></g><g stroke-linecap="round" transform="translate(312 413) rotate(0 60 9.5)"><path d="M65.82 -0.31 C76.11 -0.17, 89.14 1.29, 97.58 2.4 C106.03 3.52, 113.04 4.89, 116.48 6.4 C119.93 7.9, 120.86 9.7, 118.24 11.44 C115.62 13.17, 108.66 15.59, 100.78 16.83 C92.91 18.06, 81.53 18.63, 70.98 18.86 C60.43 19.09, 47.6 18.84, 37.5 18.2 C27.4 17.56, 16.59 16.4, 10.37 15 C4.15 13.59, 0.58 11.44, 0.18 9.77 C-0.22 8.1, 2.54 6.37, 8 4.97 C13.45 3.56, 22.74 2.1, 32.9 1.35 C43.06 0.59, 62.59 0.65, 68.96 0.43 C75.32 0.22, 71.3 -0.02, 71.1 0.06 M70.64 -0.02 C80.88 0.21, 93.5 1.18, 101.48 2.37 C109.46 3.56, 116.02 5.43, 118.51 7.11 C120.99 8.79, 119.84 10.91, 116.39 12.46 C112.94 14.01, 106.25 15.21, 97.8 16.41 C89.35 17.61, 76.47 19.4, 65.69 19.64 C54.9 19.87, 42.73 18.64, 33.09 17.82 C23.45 17, 13.43 16.11, 7.87 14.73 C2.31 13.35, -0.89 11.44, -0.28 9.54 C0.33 7.63, 5.32 4.75, 11.54 3.3 C17.76 1.85, 27.18 1.29, 37.03 0.86 C46.87 0.43, 65 0.72, 70.61 0.71 C76.23 0.69, 70.69 0.65, 70.74 0.77" stroke="none" stroke-width="0" fill="#e9ecef"></path><path d="M55.92 0.32 C66.09 0.13, 79.19 0.53, 88.7 1.27 C98.22 2.01, 107.75 3.27, 113 4.74 C118.25 6.22, 120.95 8.38, 120.2 10.11 C119.44 11.84, 114.98 13.74, 108.46 15.11 C101.93 16.48, 91.34 17.75, 81.06 18.33 C70.78 18.9, 57.33 18.94, 46.79 18.56 C36.25 18.19, 25.3 17.25, 17.8 16.09 C10.31 14.92, 4.16 13.3, 1.81 11.58 C-0.55 9.86, -0.09 7.39, 3.68 5.78 C7.46 4.16, 15.51 2.86, 24.45 1.89 C33.38 0.92, 51.6 0.21, 57.3 -0.02 C63 -0.25, 58.63 0.38, 58.65 0.52 M70.78 -0.19 C80.94 0, 92.63 1.64, 100.56 2.82 C108.48 4, 115.47 5.38, 118.33 6.9 C121.19 8.43, 121.22 10.43, 117.72 11.96 C114.22 13.5, 105.85 15.01, 97.33 16.14 C88.8 17.27, 77.29 18.33, 66.57 18.72 C55.85 19.12, 42.75 19.15, 33.02 18.52 C23.28 17.88, 13.77 16.54, 8.18 14.9 C2.59 13.26, -0.92 10.48, -0.52 8.66 C-0.11 6.85, 4.52 5.21, 10.62 4 C16.71 2.79, 25.99 2.15, 36.04 1.4 C46.09 0.66, 65.33 -0.42, 70.92 -0.48 C76.51 -0.54, 69.88 0.89, 69.58 1.03" stroke="#343a40" stroke-width="2" fill="none"></path></g><g stroke-linecap="round"><g transform="translate(368 697) rotate(0 1 -103.5)"><path d="M0.77 0.39 C1.45 -34.29, 2.75 -172.32, 2.98 -207.04 M-0.28 -0.45 C0.42 -34.42, 2.26 -171.08, 2.55 -205.53" stroke="#e03131" stroke-width="2" fill="none"></path></g><g transform="translate(368 697) rotate(0 1 -103.5)"><path d="M12.49 -177.22 C10.81 -181.44, 8.01 -188.71, 2.55 -205.53 M12.49 -177.22 C9.82 -184.32, 7.65 -188.69, 2.55 -205.53" stroke="#e03131" stroke-width="2" fill="none"></path></g><g transform="translate(368 697) rotate(0 1 -103.5)"><path d="M-8.03 -177.46 C-5.42 -181.76, -3.93 -188.98, 2.55 -205.53 M-8.03 -177.46 C-6.19 -184.68, -3.86 -189, 2.55 -205.53" stroke="#e03131" stroke-width="2" fill="none"></path></g></g><mask></mask><g transform="translate(278 701) rotate(0 86.87992095947266 12.5)"><text x="0" y="0" font-family="Virgil, Segoe UI Emoji" font-size="20px" fill="#e03131" text-anchor="start" style="white-space: pre;" direction="ltr" dominant-baseline="text-before-edge">Energie électrique</text></g><g stroke-linecap="round"><g transform="translate(485 182) rotate(0 66 -66)"><path d="M-0.1 -1 C21.73 -23.11, 109.4 -110.4, 131.53 -132.14 M-1.61 1.09 C19.98 -20.87, 108.02 -108.25, 130.33 -130.68" stroke="#f08c00" stroke-width="2" fill="none"></path></g><g transform="translate(485 182) rotate(0 66 -66)"><path d="M117.63 -103.5 C120.21 -113.62, 126.01 -121.04, 130.33 -130.68 M117.63 -103.5 C122.24 -113.26, 126.62 -122.24, 130.33 -130.68" stroke="#f08c00" stroke-width="2" fill="none"></path></g><g transform="translate(485 182) rotate(0 66 -66)"><path d="M103.13 -118.02 C110.75 -123.14, 121.53 -125.57, 130.33 -130.68 M103.13 -118.02 C112.77 -122.64, 122.21 -126.57, 130.33 -130.68" stroke="#f08c00" stroke-width="2" fill="none"></path></g></g><mask></mask><g transform="translate(625 26) rotate(0 82.39991760253906 12.5)"><text x="0" y="0" font-family="Virgil, Segoe UI Emoji" font-size="20px" fill="#f08c00" text-anchor="start" style="white-space: pre;" direction="ltr" dominant-baseline="text-before-edge">Energie lumineuse</text></g><g stroke-linecap="round"><g transform="translate(276 154) rotate(0 -51.5 -54.5)"><path d="M-0.67 0.94 C-17.97 -17.22, -86.38 -90.77, -103.3 -109.08 M1.18 0.39 C-16.35 -17.56, -87.12 -89.6, -104.41 -107.58" stroke="#2f9e44" stroke-width="2" fill="none"></path></g><g transform="translate(276 154) rotate(0 -51.5 -54.5)"><path d="M-77.39 -94.54 C-85.07 -99.66, -96.03 -102.27, -104.41 -107.58 M-77.39 -94.54 C-85.98 -98.94, -93.63 -101.7, -104.41 -107.58" stroke="#2f9e44" stroke-width="2" fill="none"></path></g><g transform="translate(276 154) rotate(0 -51.5 -54.5)"><path d="M-92.1 -80.22 C-94.72 -90.17, -100.64 -97.69, -104.41 -107.58 M-92.1 -80.22 C-96.25 -89.12, -99.33 -96.33, -104.41 -107.58" stroke="#2f9e44" stroke-width="2" fill="none"></path></g></g><mask></mask><g transform="translate(10 10) rotate(0 84.33992004394531 12.5)"><text x="0" y="0" font-family="Virgil, Segoe UI Emoji" font-size="20px" fill="#2f9e44" text-anchor="start" style="white-space: pre;" direction="ltr" dominant-baseline="text-before-edge">Energie thermique</text></g></svg>